<svg width="77" height="77" viewBox="0 0 77 77" fill="none" xmlns="http://www.w3.org/2000/svg">
<g clip-path="url(#clip0_400_15620)">
<mask id="mask0_400_15620" style="mask-type:luminance" maskUnits="userSpaceOnUse" x="9" y="8" width="60" height="61">
<path d="M69 8.94995H9V68.95H69V8.94995Z" fill="white"/>
</mask>
<g mask="url(#mask0_400_15620)">
<path d="M34.525 42.2751C34.03 42.2643 33.5571 42.068 33.2 41.7251L29.7 38.2251C29.3488 37.8735 29.1516 37.3969 29.1516 36.9001C29.1516 36.4032 29.3488 35.9266 29.7 35.5751L33.475 31.8001C33.8265 31.4489 34.3031 31.2517 34.8 31.2517C35.2968 31.2517 35.7734 31.4489 36.125 31.8001C36.3019 31.9724 36.4424 32.1785 36.5384 32.406C36.6344 32.6336 36.6839 32.8781 36.6839 33.1251C36.6839 33.372 36.6344 33.6165 36.5384 33.8441C36.4424 34.0717 36.3019 34.2777 36.125 34.4501L33.625 36.9501L35.8 39.1001C36.1467 39.459 36.3405 39.9385 36.3405 40.4376C36.3405 40.9366 36.1467 41.4161 35.8 41.7751C35.4482 42.0885 34.996 42.2658 34.525 42.2751Z" fill="url(#paint0_linear_400_15620)"/>
<path d="M43.475 42.275C42.98 42.2642 42.5072 42.0679 42.15 41.725C41.8033 41.3661 41.6095 40.8866 41.6095 40.3875C41.6095 39.8885 41.8033 39.4089 42.15 39.05L44.325 36.9L41.825 34.4C41.6481 34.2276 41.5076 34.0216 41.4116 33.794C41.3156 33.5665 41.2661 33.322 41.2661 33.075C41.2661 32.828 41.3156 32.5835 41.4116 32.356C41.5076 32.1284 41.6481 31.9224 41.825 31.75C42.1766 31.3989 42.6532 31.2017 43.15 31.2017C43.6469 31.2017 44.1235 31.3989 44.475 31.75L48.25 35.525C48.6012 35.8766 48.7984 36.3531 48.7984 36.85C48.7984 37.3469 48.6012 37.8234 48.25 38.175L44.75 41.675C44.4133 42.025 43.9594 42.2386 43.475 42.275Z" fill="url(#paint1_linear_400_15620)"/>
<path d="M46.5 65.875H31.5C29.0136 65.875 26.629 64.8873 24.8709 63.1291C23.1127 61.371 22.125 58.9864 22.125 56.5V21.5C22.125 19.0136 23.1127 16.629 24.8709 14.8709C26.629 13.1127 29.0136 12.125 31.5 12.125H46.5C48.9864 12.125 51.371 13.1127 53.1291 14.8709C54.8873 16.629 55.875 19.0136 55.875 21.5V56.5C55.875 58.9864 54.8873 61.371 53.1291 63.1291C51.371 64.8873 48.9864 65.875 46.5 65.875ZM31.5 15.875C30.0082 15.875 28.5774 16.4676 27.5225 17.5225C26.4676 18.5774 25.875 20.0082 25.875 21.5V56.5C25.875 57.9918 26.4676 59.4226 27.5225 60.4775C28.5774 61.5324 30.0082 62.125 31.5 62.125H46.5C47.9918 62.125 49.4226 61.5324 50.4775 60.4775C51.5324 59.4226 52.125 57.9918 52.125 56.5V21.5C52.125 20.0082 51.5324 18.5774 50.4775 17.5225C49.4226 16.4676 47.9918 15.875 46.5 15.875H31.5Z" fill="url(#paint2_linear_400_15620)"/>
<path d="M39.0001 58.375C38.6295 58.3747 38.2673 58.2645 37.9592 58.0585C37.6512 57.8524 37.4111 57.5597 37.2693 57.2173C37.1276 56.8749 37.0904 56.4982 37.1626 56.1347C37.2349 55.7712 37.4132 55.4372 37.6751 55.175C37.893 54.9567 38.1615 54.7956 38.4566 54.706C38.7518 54.6163 39.0645 54.6008 39.3671 54.6609C39.6696 54.721 39.9527 54.8549 40.1911 55.0505C40.4296 55.2462 40.6161 55.4977 40.7341 55.7827C40.8521 56.0677 40.898 56.3774 40.8676 56.6844C40.8373 56.9913 40.7317 57.2861 40.5602 57.5425C40.3887 57.7989 40.1566 58.009 39.8844 58.1542C39.6123 58.2994 39.3085 58.3753 39.0001 58.375Z" fill="url(#paint3_linear_400_15620)"/>
</g>
</g>
<defs>
<linearGradient id="paint0_linear_400_15620" x1="28.7745" y1="42.8762" x2="37.5176" y2="43.5401" gradientUnits="userSpaceOnUse">
<stop stop-color="#47CBDA"/>
<stop offset="0.645" stop-color="#3793AA"/>
<stop offset="1" stop-color="#27526A"/>
</linearGradient>
<linearGradient id="paint1_linear_400_15620" x1="40.889" y1="42.8789" x2="49.6326" y2="43.5398" gradientUnits="userSpaceOnUse">
<stop stop-color="#47CBDA"/>
<stop offset="0.645" stop-color="#3793AA"/>
<stop offset="1" stop-color="#27526A"/>
</linearGradient>
<linearGradient id="paint2_linear_400_15620" x1="20.4353" y1="68.8064" x2="59.6457" y2="71.5421" gradientUnits="userSpaceOnUse">
<stop stop-color="#47CBDA"/>
<stop offset="0.645" stop-color="#3793AA"/>
<stop offset="1" stop-color="#27526A"/>
</linearGradient>
<linearGradient id="paint3_linear_400_15620" x1="36.939" y1="58.5795" x2="41.2635" y2="59.06" gradientUnits="userSpaceOnUse">
<stop stop-color="#47CBDA"/>
<stop offset="0.645" stop-color="#3793AA"/>
<stop offset="1" stop-color="#27526A"/>
</linearGradient>
<clipPath id="clip0_400_15620">
<rect width="60" height="60" fill="white" transform="translate(9 9)"/>
</clipPath>
</defs>
</svg>
