<svg width="77" height="77" viewBox="0 0 77 77" fill="none" xmlns="http://www.w3.org/2000/svg">
<g clip-path="url(#clip0_400_15630)">
<g clip-path="url(#clip1_400_15630)">
<path fill-rule="evenodd" clip-rule="evenodd" d="M15.6871 52.661L16.9541 50.984L21.3968 54.9299C21.9134 54.5744 22.5172 54.3709 23.1529 54.3379C23.7885 54.305 24.4358 54.4436 25.0356 54.7413L25.7252 53.8285L21.6278 50.1892C21.5525 50.1226 21.489 50.042 21.4411 49.9518C21.3932 49.8616 21.3618 49.7638 21.3487 49.6639C21.3237 49.4625 21.3723 49.2655 21.4843 49.1141L34.1176 32.3924C34.1737 32.3177 34.2441 32.2569 34.3249 32.2135C34.4056 32.1702 34.4951 32.1452 34.588 32.1399C34.7756 32.1309 34.9655 32.2002 35.1179 32.3332L44.8368 40.9654C44.9686 41.085 45.0617 41.246 45.1002 41.4212C45.1387 41.5964 45.1203 41.7752 45.0481 41.9274C45.022 41.9619 44.9959 41.9965 44.9698 42.0311L32.3365 58.7529C32.3103 58.7874 32.2842 58.822 32.2581 58.8566C32.1508 58.9499 32.0166 59.0039 31.873 59.0115C31.7808 59.0182 31.6867 59.0048 31.5962 58.9721C31.5058 58.9395 31.4209 58.8881 31.3466 58.8213L27.413 55.3275L26.7234 56.2404C27.1092 56.82 27.3611 57.4806 27.4564 58.1625C27.5517 58.8444 27.4874 59.5261 27.2692 60.1458L35.1363 67.1332L33.8693 68.8103L26.0231 61.8414C25.3603 62.3373 24.5421 62.5702 23.6963 62.5037C22.8505 62.4372 22.0247 62.0751 21.3477 61.4738C20.6707 60.8725 20.1807 60.0659 19.9541 59.1799C19.7274 58.2939 19.7769 57.3783 20.0949 56.576L15.6871 52.661ZM48.3188 54.1118C48.4477 54.0646 48.5819 54.0104 48.7161 53.9562L49.1874 53.7566C49.3581 53.6771 49.5324 53.6008 49.7083 53.5144C49.8843 53.428 50.0603 53.3416 50.2241 53.256L50.2859 53.2358C50.5412 53.0985 50.7929 52.9581 51.0377 52.8115C51.2825 52.6649 51.529 52.5083 51.7686 52.3454C52.009 52.1892 52.2442 52.0167 52.4863 51.8273C52.7285 51.638 52.948 51.4631 53.1657 51.2752C53.3451 51.1225 53.5211 50.9668 53.6848 50.8117C53.8486 50.6567 54.0175 50.4948 54.1856 50.3263C54.3319 50.1789 54.4774 50.0249 54.6219 49.8644C54.7386 49.7408 54.851 49.6153 54.959 49.4878L50.872 45.8577C50.4466 46.3652 49.9896 46.8412 49.5038 47.2831C48.9804 47.7569 48.428 48.1944 47.8497 48.5932C47.2639 48.9904 46.6568 49.3538 46.0308 49.6818C45.4585 49.9766 44.8556 50.25 44.2414 50.5077L48.3188 54.1118ZM45.6641 54.8798L42.4942 52.0644L47.0658 46.0133C47.2749 45.8523 47.4804 45.6882 47.6781 45.5114C48.1479 45.1047 48.5879 44.6615 48.995 44.1849L48.6672 43.8937L49.1897 43.2022C49.5029 42.7888 49.7007 42.2849 49.7631 41.7412L50.3699 42.2801C50.688 41.7403 50.9732 41.1774 51.2238 40.5945C51.504 39.944 51.7449 39.2723 51.9452 38.5831C52.1597 37.8347 52.3326 37.07 52.4633 36.2929C52.5996 35.4928 52.6966 34.6822 52.7539 33.8643L47.3 29.0201L43.4311 34.1411L41.555 32.4747L45.4186 27.3607L39.9647 22.5166C39.2363 22.7386 38.5224 23.0013 37.8258 23.3036C37.1479 23.5936 36.4904 23.928 35.857 24.3053C35.273 24.6541 34.7119 25.0414 34.1767 25.465C33.7 25.8472 33.2483 26.2623 32.8241 26.7077L33.4309 27.2466C32.9507 27.4188 32.5328 27.7272 32.2192 28.1408L31.6967 28.8323L31.369 28.5412C31.0213 29.0705 30.7084 29.6264 30.4322 30.2053C30.3173 30.4499 30.2085 30.6942 30.1032 30.9416L25.529 36.9961L22.3905 34.2086L22.3976 34.4923C22.4082 34.6865 22.4153 34.8777 22.4284 35.0685C22.4618 35.5488 22.5144 36.0346 22.5765 36.5232C22.6211 36.8344 22.6823 37.1545 22.726 37.4591C22.7697 37.7637 22.8396 38.08 22.9138 38.3829C22.988 38.6857 23.0605 38.9985 23.1417 39.3075C23.2002 39.5155 23.2587 39.7235 23.3233 39.9311L21.6488 42.1475L21.531 41.8869C21.401 41.5345 21.2806 41.1848 21.1627 40.8317C21.0449 40.4786 20.9524 40.1538 20.8572 39.8092C20.7621 39.4647 20.673 39.1198 20.5953 38.7676C20.5175 38.4155 20.445 38.0564 20.3795 37.7035C20.3139 37.3506 20.2763 36.9994 20.2369 36.6581C20.187 36.3076 20.1494 35.9564 20.1187 35.6113C20.088 35.2663 20.0652 34.9109 20.0484 34.5551C20.0317 34.1993 20.0106 33.8339 20.0296 33.4925C20.0485 33.1512 20.0431 32.7881 20.0612 32.4402C20.0794 32.0923 20.0931 31.7116 20.1469 31.378C20.2008 31.0445 20.2189 30.6735 20.2649 30.3272C20.3109 29.9809 20.3717 29.6305 20.436 29.2831C20.5003 28.9358 20.5733 28.5846 20.6411 28.2404C20.7089 27.8961 20.8211 27.5162 20.9098 27.1905C20.9985 26.8649 21.1142 26.5112 21.2326 26.1771C21.3509 25.8431 21.4701 25.5156 21.5998 25.1975C21.7294 24.8793 21.873 24.5504 22.0411 24.2431C22.2091 23.9359 22.3466 23.6073 22.5085 23.3005C22.6704 22.9936 22.828 22.6771 23.0117 22.3722C23.1954 22.0674 23.3861 21.7687 23.5837 21.4762C23.7814 21.1838 23.9912 20.8906 24.2028 20.6105C24.6312 20.0434 25.0823 19.508 25.5535 19.0078C25.793 18.7525 26.0342 18.5103 26.2798 18.2778C26.5255 18.0452 26.7902 17.795 27.062 17.5973C27.3338 17.3995 27.5707 17.1708 27.8355 16.9669C28.1002 16.7629 28.3668 16.5721 28.6429 16.384C28.9191 16.1959 29.1969 16.0209 29.4757 15.8525C30.0515 15.4914 30.6526 15.1586 31.3025 14.8691C31.6013 14.7359 31.9036 14.6057 32.2077 14.4886C32.5117 14.3715 32.8175 14.2676 33.1355 14.186C33.4535 14.1045 33.7515 13.9878 34.0686 13.8996C34.3858 13.8115 34.6689 13.699 34.9957 13.6367C35.3224 13.5745 35.6265 13.5037 35.948 13.4483C36.2695 13.393 36.6023 13.3535 36.9291 13.3144C37.2558 13.2752 37.5965 13.2485 37.9277 13.2421C38.257 13.2227 38.5812 13.2101 38.9062 13.2041C39.2312 13.1981 39.565 13.2114 39.8987 13.2247C40.2325 13.2381 40.5784 13.2506 40.8922 13.2982C41.2259 13.3346 41.5536 13.3714 41.8769 13.4217C42.2002 13.4719 42.5688 13.5162 42.9105 13.5885C43.2521 13.6608 43.578 13.7307 43.9083 13.8103C44.2386 13.8899 44.5707 13.9826 44.9036 14.0818C45.2365 14.1811 45.5712 14.2934 45.9076 14.3958C46.2458 14.5112 46.5796 14.6402 46.9012 14.7698C47.2228 14.8994 47.5592 15.048 47.8843 15.2039C48.2095 15.3598 48.532 15.5191 48.8431 15.6857C49.1543 15.8523 49.4733 16.0316 49.7906 16.221C50.1108 16.4245 50.4203 16.6242 50.719 16.8202C51.0197 17.0237 51.3213 17.2339 51.6351 17.4664C51.949 17.6989 52.2227 17.9073 52.5156 18.1444C52.8085 18.3814 53.0927 18.6223 53.3891 18.8856C53.9575 19.3904 54.505 19.9229 55.0247 20.4769C55.2863 20.7555 55.5356 21.0347 55.7789 21.3144C56.0221 21.594 56.255 21.8874 56.4921 22.1905C56.7293 22.4936 56.9386 22.772 57.154 23.0731C57.3694 23.3742 57.5726 23.676 57.774 23.9878C57.9755 24.2996 58.1647 24.6122 58.3479 24.9251C58.5311 25.238 58.7064 25.5613 58.8765 25.8914C58.8956 25.9229 58.9114 25.9564 58.9236 25.9911C59.085 26.302 59.2446 26.6229 59.3781 26.9321C59.5116 27.2413 59.6764 27.6016 59.8143 27.8973C59.9548 28.2359 60.0891 28.5748 60.2113 28.9144C60.3404 29.2603 60.4574 29.6068 60.5848 29.9627C60.7122 30.3185 60.8161 30.6823 60.906 31.0338C60.996 31.3852 61.0877 31.7267 61.1645 32.0723C61.2414 32.4179 61.3148 32.7835 61.3803 33.1364C61.4459 33.4893 61.501 33.856 61.5482 34.21C61.598 34.5605 61.6357 34.9118 61.6673 35.2634C61.6988 35.615 61.7208 35.9638 61.7375 36.3196C61.7543 36.6754 61.7571 37.0188 61.7555 37.3756C61.754 37.7325 61.7428 38.0866 61.7247 38.4345C61.6993 38.7972 61.6751 39.1455 61.6521 39.4794C61.6156 39.8284 61.5766 40.1808 61.5306 40.5271C61.4846 40.8734 61.4264 41.2204 61.3412 41.5491C61.256 41.8779 61.2039 42.2477 61.1335 42.5954C61.0631 42.9431 60.9613 43.286 60.863 43.6321C60.7647 43.9782 60.6551 44.3084 60.5403 44.6455C60.4254 44.9826 60.3001 45.3105 60.1678 45.6321C60.0356 45.9537 59.8998 46.2723 59.7492 46.595C59.5986 46.9177 59.4463 47.2273 59.2809 47.5311C59.1155 47.8349 58.9475 48.1421 58.7638 48.447C58.5801 48.7518 58.3894 49.0505 58.1917 49.343C57.9941 49.6354 57.7816 49.9321 57.57 50.2121C57.3584 50.4922 57.1442 50.7758 56.9091 51.0407C56.6739 51.3057 56.4536 51.5664 56.2141 51.8217C55.9746 52.077 55.7308 52.3227 55.4852 52.5552C55.2457 52.7874 54.9931 53.0138 54.7309 53.2374C54.4687 53.461 54.2222 53.6638 53.9574 53.8678C53.6926 54.0717 53.4261 54.2625 53.15 54.4506C52.8738 54.6387 52.596 54.8137 52.3137 54.9791C52.0315 55.1444 51.7492 55.3097 51.4556 55.4592C51.427 55.4808 51.395 55.4972 51.3607 55.5078C51.0732 55.6569 50.7788 55.7998 50.466 55.9207C50.1532 56.0416 49.8649 56.1842 49.5948 56.3025C49.3247 56.4209 48.9745 56.5374 48.6713 56.6379C48.3681 56.7384 48.0492 56.8365 47.7356 56.9277C47.4219 57.0189 47.1126 57.0967 46.7963 57.1682C46.4801 57.2398 46.1594 57.3017 45.8466 57.3532C45.5179 57.4079 45.192 57.4535 44.869 57.4903C44.5362 57.5297 44.2251 57.5713 43.8844 57.5749C43.555 57.5943 43.2309 57.6069 42.9084 57.6094C42.586 57.612 42.2531 57.6052 41.9194 57.5919C41.5856 57.5786 41.2432 57.5691 40.9225 57.5154C40.6018 57.4617 40.2576 57.4391 39.9256 57.3926C39.5935 57.3462 39.2598 57.2866 38.9277 57.217L38.6497 57.1608L40.2694 55.017C40.482 55.0441 40.6946 55.0711 40.9064 55.0917C41.1992 55.1206 41.4911 55.143 41.7848 55.1554C42.0785 55.1677 42.3582 55.1677 42.6597 55.1697C42.9612 55.1717 43.2487 55.1613 43.538 55.1409C43.8273 55.1205 43.992 55.1108 44.2168 55.0909C44.4416 55.071 44.6621 55.0415 44.8686 54.9995C45.0751 54.9576 45.2214 54.9489 45.3957 54.9188L45.6536 54.8706L45.6641 54.8798ZM22.5258 31.2143L26.6162 34.8474C26.7134 34.1249 26.842 33.4302 26.9977 32.7537C27.1699 32.0217 27.3798 31.3036 27.6265 30.6024C27.8725 29.909 28.1606 29.2366 28.489 28.5892C28.7899 27.9905 29.1257 27.4147 29.4946 26.8649L25.4111 23.2379C25.3118 23.3693 25.2204 23.5135 25.1368 23.6704C25.0036 23.8467 24.907 24.044 24.8025 24.2286C24.698 24.4131 24.5666 24.6488 24.4586 24.8534C24.3507 25.058 24.2471 25.2722 24.1418 25.4965C24.0156 25.7715 23.8929 26.0496 23.7797 26.3305C23.6666 26.6114 23.5552 26.9054 23.456 27.1986C23.3568 27.4919 23.2577 27.7851 23.1672 28.0977C23.0767 28.4102 23.0019 28.7021 22.9315 29.0035C22.8889 29.191 22.8446 29.3885 22.8064 29.5857C22.7699 29.7729 22.7316 29.97 22.6969 30.1703C22.6621 30.3705 22.6361 30.5438 22.6074 30.7206C22.5787 30.8974 22.5631 31.0337 22.5432 31.1836L22.5258 31.2143ZM26.8156 21.3711L30.941 25.0352C31.3854 24.5599 31.8577 24.1151 32.3554 23.7029C32.8969 23.2457 33.4658 22.8249 34.0592 22.4427C34.6598 22.0577 35.2808 21.7068 35.9199 21.3913C36.5234 21.1068 37.1445 20.8399 37.7834 20.5908L33.4558 16.747C33.3182 16.7981 33.184 16.8523 33.0498 16.9065C32.9157 16.9606 32.7353 17.0374 32.5698 17.1099C32.3982 17.1828 32.23 17.2588 32.0628 17.3414C31.8955 17.4239 31.7256 17.51 31.5619 17.5956L31.541 17.6233L31.5227 17.6475C31.27 17.7813 31.0183 17.9217 30.7735 18.0683C30.5287 18.215 30.2822 18.3716 30.0426 18.5344C29.8031 18.6972 29.5618 18.87 29.3249 19.0525C29.088 19.235 28.8632 19.4167 28.6455 19.6047C28.4277 19.7926 28.2465 19.8859 28.0898 20.0471C27.933 20.2083 27.7466 20.3779 27.589 20.5326C27.4314 20.6872 27.2894 20.8443 27.1501 20.9979C27.0107 21.1515 26.9219 21.2459 26.8156 21.3711ZM36.1245 15.9914L40.3789 19.7701C41.073 19.5969 41.7892 19.4434 42.5275 19.3095C43.2657 19.1755 44.0572 19.0638 44.9018 18.9742C45.6663 18.8828 46.4519 18.8199 47.2588 18.7854C47.9263 18.7503 48.6092 18.7309 49.3074 18.7271L49.1096 18.6033L48.7679 18.3923C48.5003 18.2297 48.2213 18.0744 47.9503 17.9319C47.6792 17.7894 47.3854 17.6382 47.1039 17.5095C46.8224 17.3808 46.5339 17.2459 46.2315 17.1217C45.929 16.9976 45.644 16.8889 45.3512 16.7906C45.0583 16.6923 44.7455 16.5819 44.4509 16.4936C44.1563 16.4053 43.8565 16.3239 43.5576 16.2491C43.2586 16.1743 42.9545 16.1064 42.6652 16.0343C42.3758 15.9622 42.0786 15.9236 41.7841 15.8815C41.4895 15.8395 41.1924 15.8009 40.9022 15.7685C40.612 15.7361 40.3148 15.7206 40.0238 15.7048C39.7327 15.689 39.4478 15.6959 39.1428 15.6908C38.8378 15.6857 38.5564 15.6957 38.2645 15.7196C38.0449 15.7326 37.8227 15.749 37.6014 15.772C37.38 15.795 37.1526 15.8183 36.9496 15.8634C36.7466 15.9084 36.5932 15.9108 36.4059 15.9583L36.1358 16.0073L36.1245 15.9914ZM54.3499 23.2058C54.4863 23.9509 54.5991 24.6809 54.7005 25.395C54.8172 26.269 54.9143 27.1122 54.992 27.9247C55.0715 28.8119 55.1251 29.6742 55.1528 30.5116C55.1785 31.326 55.179 32.1122 55.1524 32.8802L59.4102 36.6619L59.4109 36.3679C59.4039 36.1767 59.3907 35.9859 59.3775 35.7951C59.3644 35.6043 59.3442 35.3148 59.3318 35.0843L59.2469 34.3559C59.2006 34.0316 59.1594 33.7004 59.0992 33.41C59.0389 33.1196 58.9856 32.7891 58.9139 32.4828C58.8423 32.1765 58.7847 31.8826 58.6834 31.5615C58.5822 31.2405 58.5062 30.9477 58.4102 30.6428C58.3142 30.338 58.2094 30.037 58.0951 29.7332C57.9808 29.4294 57.8665 29.1257 57.7356 28.8361C57.6048 28.5465 57.473 28.2273 57.3483 27.9142C57.2235 27.6012 57.036 27.3249 56.8703 27.0275L56.8423 26.9564C56.6906 26.6714 56.5362 26.3898 56.3766 26.1152C56.217 25.8405 56.0478 25.5631 55.8733 25.2926C55.6989 25.0222 55.5158 24.7555 55.3196 24.483C55.1234 24.2105 54.9359 23.9573 54.7423 23.7045L54.4877 23.3859L54.3499 23.2058ZM59.2541 39.6376L54.9369 35.8032C54.8476 36.5385 54.7242 37.2494 54.5764 37.9386C54.4203 38.6854 54.2258 39.4192 53.9938 40.1368C53.765 40.8429 53.4965 41.5304 53.1897 42.1961C52.9094 42.8022 52.5967 43.3886 52.253 43.9527L56.3749 47.6137L56.6387 47.195C56.7719 47.0187 56.8685 46.8214 56.973 46.6368C57.0775 46.4523 57.2089 46.2166 57.3169 46.012C57.4248 45.8074 57.5153 45.6105 57.6337 45.3689C57.7599 45.0939 57.8826 44.8158 57.9958 44.5349C58.1089 44.254 58.2229 43.9566 58.3195 43.6668C58.416 43.377 58.5143 43.0772 58.6083 42.7677C58.7022 42.4583 58.7735 42.1634 58.8413 41.8654C58.8839 41.6778 58.9283 41.4803 58.9665 41.2832L59.076 40.6986C59.1116 40.5049 59.1394 40.3216 59.1629 40.1517C59.1863 39.9819 59.208 39.8451 59.2262 39.6822L59.2541 39.6376ZM51.9369 22.8826L48.7028 27.1633L52.8247 30.8243C52.813 30.2766 52.7901 29.7131 52.7506 29.1406C52.7101 28.4691 52.6496 27.7779 52.5691 27.0669C52.4886 26.356 52.3917 25.6228 52.2786 24.8675C52.1761 24.2217 52.0621 23.5601 51.9369 22.8826ZM46.8267 25.497L50.0608 21.2162C49.4212 21.2144 48.8004 21.2236 48.1986 21.2437C47.4945 21.2655 46.8088 21.3093 46.1492 21.3648C45.4896 21.4203 44.8535 21.491 44.2383 21.5802C43.7129 21.6509 43.1988 21.7374 42.7013 21.8329L46.8267 25.497ZM31.5578 51.1912C31.3057 51.5249 30.9594 51.7625 30.5628 51.8739C30.1661 51.9853 29.7369 51.9656 29.3295 51.8171C28.9221 51.6686 28.5546 51.3981 28.2737 51.0398C27.9928 50.6815 27.811 50.2515 27.7513 49.8041C27.6916 49.3568 27.7567 48.9121 27.9383 48.5265C28.1199 48.1409 28.4099 47.8315 28.7717 47.6376C29.1334 47.4436 29.5507 47.3738 29.9706 47.437C30.3905 47.5001 30.7943 47.6934 31.1309 47.9923C31.5822 48.3932 31.8807 48.9554 31.9608 49.5553C32.0409 50.1552 31.8959 50.7437 31.5578 51.1912ZM41.0976 42.4978L40.0265 43.9155L33.4008 38.0306L34.4719 36.613L41.0976 42.4978ZM38.1378 46.4154L37.0667 47.8331L30.441 41.9483L31.5121 40.5306L38.1378 46.4154ZM25.3703 58.309C25.3045 57.8253 25.0632 57.3724 24.6993 57.0491C24.3353 56.7259 23.8783 56.5586 23.428 56.5838C23.0945 56.6069 22.7834 56.7351 22.5336 56.9525C22.2838 57.1699 22.1063 57.4668 22.0234 57.8062C21.9405 58.1456 21.9557 58.5123 22.0673 58.8606C22.1788 59.2089 22.3817 59.5234 22.6506 59.7647C22.9226 60.006 23.2488 60.1619 23.588 60.2126C23.9272 60.2633 24.2641 60.2066 24.5561 60.0497C24.8481 59.8927 25.0821 59.6426 25.2284 59.3309C25.3748 59.0192 25.4269 58.6599 25.3782 58.2986L25.3703 58.309Z" fill="url(#paint0_linear_400_15630)"/>
</g>
</g>
<defs>
<linearGradient id="paint0_linear_400_15630" x1="1.15973" y1="47.4178" x2="39.6075" y2="82.5349" gradientUnits="userSpaceOnUse">
<stop stop-color="#47CBDA"/>
<stop offset="0.645" stop-color="#3793AA"/>
<stop offset="1" stop-color="#27526A"/>
</linearGradient>
<clipPath id="clip0_400_15630">
<rect width="77" height="77" fill="white"/>
</clipPath>
<clipPath id="clip1_400_15630">
<rect width="48.0527" height="59.0553" fill="white" transform="matrix(0.74767 0.664071 -0.602805 0.797888 38.5989 -1)"/>
</clipPath>
</defs>
</svg>
