<svg width="77" height="77" viewBox="0 0 77 77" fill="none" xmlns="http://www.w3.org/2000/svg">
<path d="M25.0709 27.7375C25.3032 27.1145 25.7133 26.6709 26.2998 26.4042C26.8863 26.1363 27.4957 26.1136 28.1165 26.3461L31.5011 27.5922C32.3669 26.2223 33.5146 24.9534 34.7028 23.8488L33.0702 20.3064C32.7947 19.7099 32.7693 19.1096 32.994 18.5068C33.2213 17.8963 33.6313 17.4641 34.2306 17.1911L38.698 15.1501C39.2693 14.8885 39.8622 14.862 40.4881 15.0819C41.1038 15.3018 41.5494 15.71 41.8236 16.3078L43.3191 19.5507C44.9251 19.2284 46.5831 19.1159 48.217 19.2322L49.6249 15.5356C49.828 14.9252 50.219 14.4854 50.8132 14.2136C51.3997 13.9457 52.0027 13.9318 52.6324 14.1606L57.1989 15.8503C57.8261 16.0815 58.2717 16.4897 58.5408 17.0736C58.8087 17.6562 58.8315 18.2641 58.5979 18.8821L57.3462 22.2514C58.7211 23.1133 59.9957 24.2558 61.1065 25.4387L64.6638 23.8135C65.2643 23.5392 65.8673 23.5139 66.4729 23.7376C67.086 23.9638 67.5202 24.3721 67.7944 24.9686L69.8447 29.4159C70.1075 29.9858 70.1329 30.5735 69.912 31.1978C69.6924 31.8095 69.2823 32.2544 68.6818 32.5273L65.4242 34.0161C65.753 35.6388 65.8508 37.2805 65.7632 38.9335L69.4575 40.2934C70.0707 40.4969 70.5125 40.8848 70.7854 41.4776C71.0546 42.0602 71.0686 42.6605 70.8388 43.2886L69.1604 47.8762C68.9167 48.4752 68.4978 48.9011 67.9125 49.1678C67.326 49.4357 66.7255 49.4774 66.1136 49.2676L62.71 47.9798C61.8264 49.3574 60.7092 50.6072 59.5095 51.7232L61.1421 55.2656C61.4176 55.8621 61.443 56.4612 61.2183 57.0653C60.991 57.6757 60.581 58.1079 59.9817 58.3809L55.5143 60.4219C54.9417 60.6835 54.3501 60.7088 53.7242 60.4889C53.1085 60.269 52.6629 59.862 52.3874 59.2643L50.8932 56.0214C49.2618 56.3499 47.614 56.446 45.9534 56.3588L44.5874 60.0364C44.383 60.6469 43.9844 61.0905 43.3839 61.3647C42.7758 61.6427 42.1778 61.6541 41.5786 61.4115L36.9702 59.7395C36.3672 59.4981 35.9406 59.081 35.6715 58.4984C35.4023 57.9145 35.3617 57.3168 35.5725 56.7076L36.8648 53.3206C36.4154 53.0388 35.9762 52.7266 35.5496 52.393L38.9126 50.7071C39.6959 50.333 40.3446 50.2787 40.954 50.352C41.3666 50.5542 41.7894 50.7349 42.2223 50.8954C43.8917 51.5121 45.664 51.7889 47.5302 51.7535C53.1821 51.5778 58.3072 47.9293 60.275 42.6478C61.575 39.1572 61.3985 35.3393 59.8434 31.9662C57.4579 26.7935 52.4179 23.7048 46.6821 23.8172C42.9472 23.936 39.2706 25.6169 36.7442 28.3581C35.123 30.164 34.0147 32.2544 33.4638 34.4635C32.989 35.3077 32.5269 35.9813 32.0851 36.1911L32.0889 36.1987L28.4263 37.9882C28.4237 37.5497 28.4364 37.1124 28.4669 36.6802L24.7548 35.2786C24.1416 35.0752 23.6998 34.6872 23.4269 34.0945C23.1577 33.5106 23.1438 32.9115 23.3735 32.2834L25.0709 27.7375ZM15.7081 62.9849C13.0307 63.1479 10.2504 61.9991 8.0668 59.953C19.0343 59.9631 16.9434 46.7059 6 51.2038C7.49805 45.7757 12.3642 43.626 17.6035 44.7533C20.3749 45.3473 22.0202 45.844 24.638 44.6649L33.9449 40.1165C38.9075 37.7671 37.9566 28.971 46.2987 28.4668C48.9762 28.3025 51.7526 29.4538 53.9413 31.4986C42.9726 31.4872 45.0635 44.7445 56.0081 40.2466C54.5101 45.6746 49.6427 47.8244 44.4046 46.6971C42.1055 46.1991 40.3446 45.1906 36.9981 46.807L28.2016 51.2164C26.4585 52.1314 25.8694 52.7304 24.9008 54.4264C22.5306 58.5755 21.3105 62.6449 15.7081 62.9849Z" fill="url(#paint0_linear_400_15590)"/>
<defs>
<linearGradient id="paint0_linear_400_15590" x1="2.74583" y1="65.6725" x2="77.0161" y2="76.6198" gradientUnits="userSpaceOnUse">
<stop stop-color="#47CBDA"/>
<stop offset="0.645" stop-color="#3793AA"/>
<stop offset="1" stop-color="#27526A"/>
</linearGradient>
</defs>
</svg>
