<svg width="77" height="77" viewBox="0 0 77 77" fill="none" xmlns="http://www.w3.org/2000/svg">
<path d="M11.8204 55.7675C11.2955 55.2987 11.0006 54.6629 11.0006 54C11.0006 53.3371 11.2955 52.7013 11.8204 52.2325L20.2204 44.7325C20.6781 44.3237 21.2804 44.0691 21.9246 44.0122C22.5689 43.9552 23.2154 44.0993 23.754 44.42L30.2444 48.2825L37.0204 42.2325C37.5485 41.7771 38.2558 41.5251 38.9899 41.5308C39.7241 41.5365 40.4263 41.7994 40.9455 42.263C41.4646 42.7265 41.7591 43.3535 41.7655 44.009C41.7719 44.6645 41.4896 45.296 40.9796 45.7675L32.5796 53.2675C32.1219 53.6763 31.5196 53.9309 30.8754 53.9878C30.2311 54.0448 29.5846 53.9007 29.046 53.58L22.5556 49.7175L15.7796 55.7675C15.2545 56.2362 14.5425 56.4995 13.8 56.4995C13.0575 56.4995 12.3455 56.2362 11.8204 55.7675ZM67 16.5V61.5C67 62.163 66.705 62.7989 66.1799 63.2678C65.6548 63.7366 64.9426 64 64.2 64H13.8C13.0574 64 12.3452 63.7366 11.8201 63.2678C11.295 62.7989 11 62.163 11 61.5C11 60.837 11.295 60.2011 11.8201 59.7322C12.3452 59.2634 13.0574 59 13.8 59H61.4V29H16.6V39C16.6 39.663 16.305 40.2989 15.7799 40.7678C15.2548 41.2366 14.5426 41.5 13.8 41.5C13.0574 41.5 12.3452 41.2366 11.8201 40.7678C11.295 40.2989 11 39.663 11 39V16.5C11 15.837 11.295 15.2011 11.8201 14.7322C12.3452 14.2634 13.0574 14 13.8 14H64.2C64.9426 14 65.6548 14.2634 66.1799 14.7322C66.705 15.2011 67 15.837 67 16.5ZM16.6 24H61.4V19H16.6V24ZM46.5796 40.7675L49.3796 38.2675C49.8896 37.796 50.1719 37.1645 50.1655 36.509C50.1591 35.8535 49.8646 35.2265 49.3455 34.763C48.8263 34.2994 48.1241 34.0365 47.3899 34.0308C46.6558 34.0251 45.9485 34.2771 45.4204 34.7325L42.6204 37.2325C42.353 37.4631 42.1397 37.739 41.9929 38.044C41.8462 38.349 41.7689 38.6771 41.7657 39.009C41.7625 39.3409 41.8333 39.6701 41.9741 39.9774C42.1149 40.2846 42.3228 40.5638 42.5857 40.7985C42.8486 41.0332 43.1612 41.2189 43.5053 41.3446C43.8494 41.4703 44.2181 41.5335 44.5899 41.5306C44.9617 41.5277 45.3291 41.4588 45.6707 41.3278C46.0123 41.1967 46.3213 41.0063 46.5796 40.7675Z" fill="url(#paint0_linear_400_15580)"/>
<defs>
<linearGradient id="paint0_linear_400_15580" x1="8.19641" y1="66.7269" x2="72.5761" y2="74.7389" gradientUnits="userSpaceOnUse">
<stop stop-color="#47CBDA"/>
<stop offset="0.645" stop-color="#3793AA"/>
<stop offset="1" stop-color="#27526A"/>
</linearGradient>
</defs>
</svg>
