<svg width="77" height="77" viewBox="0 0 77 77" fill="none" xmlns="http://www.w3.org/2000/svg">
<path fill-rule="evenodd" clip-rule="evenodd" d="M49.8384 22.3112L56.2553 26.5662C56.368 26.641 56.4633 26.735 56.5357 26.843C56.6081 26.9509 56.6563 27.0707 56.6773 27.1953C56.6984 27.32 56.692 27.4471 56.6585 27.5694C56.625 27.6917 56.565 27.8068 56.4821 27.908L54.9535 29.7884L65.073 36.4986C65.6068 36.1699 66.2161 35.9541 66.8556 35.8671C67.4157 35.79 67.9874 35.8133 68.538 35.9357C69.0887 36.0581 69.6075 36.2772 70.0648 36.5805C70.5221 36.8837 70.9089 37.2652 71.2032 37.703C71.4974 38.1408 71.6933 38.6265 71.7796 39.1322C71.8666 39.6378 71.8423 40.1536 71.7082 40.6502C71.574 41.1468 71.3326 41.6144 70.9979 42.0263C70.6631 42.4381 70.2414 42.7862 69.757 43.0505C69.2727 43.3148 68.735 43.4903 68.1749 43.5668C67.6139 43.6447 67.0412 43.6219 66.4894 43.4996C65.9377 43.3774 65.4178 43.158 64.9597 42.8542C64.5015 42.5504 64.1141 42.1682 63.8197 41.7293C63.5252 41.2905 63.3296 40.8038 63.2439 40.2971L63.2322 40.1929C63.1521 39.6479 63.2024 39.094 63.3796 38.5687L58.1598 35.1074C59.128 37.1086 59.7507 39.2312 60.0061 41.401C60.5108 45.7301 59.6247 50.0953 57.4537 53.9757L58.8456 54.8987C59.1225 55.0823 59.3075 55.3575 59.36 55.6636C59.4124 55.9697 59.328 56.2818 59.1253 56.5312L55.6836 60.7652C55.4809 61.0146 55.1765 61.1808 54.8374 61.2273C54.4983 61.2738 54.1523 61.1968 53.8754 61.0132L49.2576 57.9511C48.9807 57.7675 48.7957 57.4924 48.7432 57.1862C48.6908 56.8801 48.7752 56.568 48.9779 56.3187L52.4196 52.0846C52.6223 51.8353 52.9267 51.6691 53.2658 51.6226C53.6049 51.5761 53.951 51.6531 54.2278 51.8367L55.3031 52.5497C57.0977 49.1685 57.8179 45.4022 57.3839 41.6687C56.9862 38.1764 55.4907 34.8568 53.0734 32.1013L51.7283 33.756C51.5619 33.9608 51.3122 34.0975 51.0338 34.1362C50.7554 34.1748 50.4711 34.1124 50.243 33.9625L43.8262 29.7074C43.6055 29.5536 43.4598 29.3283 43.42 29.0794C43.3803 28.8306 43.4496 28.5778 43.6133 28.3749L44.9558 26.7233C41.2234 25.4368 37.1568 25.1692 33.2633 25.9541C29.3079 26.7356 25.6586 28.457 22.6925 30.9401L23.7365 31.6324C24.0134 31.816 24.1984 32.0911 24.2508 32.3972C24.3033 32.7034 24.2189 33.0155 24.0162 33.2648L20.5821 37.4894C20.3794 37.7388 20.075 37.905 19.7359 37.9515C19.3968 37.998 19.0507 37.921 18.7739 37.7374L14.1317 34.6592C13.8548 34.4756 13.6698 34.2005 13.6174 33.8943C13.5649 33.5882 13.6493 33.2761 13.852 33.0267L17.2937 28.7927C17.4964 28.5433 17.8008 28.3771 18.1399 28.3306C18.479 28.2841 18.8251 28.3612 19.102 28.5447L20.5287 29.4908C23.902 26.5552 28.1117 24.5208 32.6924 23.6125C35.1803 23.1258 37.7403 23.007 40.2725 23.2609L34.1758 19.2181C33.6424 19.5453 33.0341 19.7601 32.3957 19.8465C31.2686 20.0002 30.1186 19.7446 29.1975 19.1356C28.2763 18.5266 27.659 17.6138 27.4805 16.5969C27.3936 16.0913 27.4179 15.5754 27.552 15.0789C27.6861 14.5823 27.9275 14.1147 28.2623 13.7028C28.5971 13.291 29.0187 12.9429 29.5031 12.6786C29.9875 12.4142 30.5251 12.2388 31.0853 12.1623C31.6453 12.0852 32.217 12.1085 32.7677 12.2309C33.3183 12.3533 33.8371 12.5724 34.2945 12.8757C34.7518 13.1789 35.1386 13.5604 35.4328 13.9982C35.7271 14.436 35.923 14.9217 36.0093 15.4274C36.1124 16.0062 36.0672 16.5983 35.8771 17.1581L46.8283 24.4198L48.3568 22.5394C48.5195 22.3322 48.7668 22.1918 49.0445 22.149C49.3222 22.1062 49.6076 22.1645 49.8384 22.3112Z" fill="url(#paint0_linear_400_15610)"/>
<path d="M37.549 57.8564L37.5539 57.8541L37.5481 57.8599C37.5484 57.8588 37.5487 57.8576 37.549 57.8564L27.4028 62.476L16.2828 53.1713L20.133 43.6599C27.1626 41.4808 35.1912 38.3763 41.2344 34.8615L42.5729 36.2152L29.9973 48.7062C29.5702 48.5561 29.0965 48.549 28.6615 48.6862C28.2264 48.8234 27.8584 49.0959 27.6234 49.4547C27.3885 49.8136 27.3021 50.2353 27.3796 50.6442C27.4572 51.0531 27.6937 51.4223 28.0467 51.6857C28.3996 51.949 28.846 52.0892 29.3055 52.0811C29.7651 52.073 30.2078 51.9171 30.5541 51.6413C30.9004 51.3656 31.1277 50.9881 31.1952 50.5767C31.2627 50.1652 31.1659 49.7467 30.9223 49.3964L43.3723 37.0138L45.1393 38.3266C41.7009 44.0297 39.1012 51.5224 37.549 57.8564Z" fill="url(#paint1_linear_400_15610)"/>
<path d="M13.1779 56.397L24.096 65.2896L24.1024 65.2948L26.0814 63.3127L15.1569 54.4149L13.1779 56.397Z" fill="url(#paint2_linear_400_15610)"/>
<defs>
<linearGradient id="paint0_linear_400_15610" x1="9.06777" y1="33.266" x2="46.3807" y2="77.0538" gradientUnits="userSpaceOnUse">
<stop stop-color="#47CBDA"/>
<stop offset="0.645" stop-color="#3793AA"/>
<stop offset="1" stop-color="#27526A"/>
</linearGradient>
<linearGradient id="paint1_linear_400_15610" x1="7.79474" y1="54.4333" x2="24.74" y2="73.9495" gradientUnits="userSpaceOnUse">
<stop stop-color="#47CBDA"/>
<stop offset="0.645" stop-color="#3793AA"/>
<stop offset="1" stop-color="#27526A"/>
</linearGradient>
<linearGradient id="paint2_linear_400_15610" x1="7.79474" y1="54.4333" x2="24.74" y2="73.9495" gradientUnits="userSpaceOnUse">
<stop stop-color="#47CBDA"/>
<stop offset="0.645" stop-color="#3793AA"/>
<stop offset="1" stop-color="#27526A"/>
</linearGradient>
</defs>
</svg>
