<svg width="77" height="77" viewBox="0 0 77 77" fill="none" xmlns="http://www.w3.org/2000/svg">
<path d="M49.4202 59.0615C49.1093 58.8723 48.8384 58.6187 48.6231 58.3113C48.5236 58.1696 48.4396 58.0197 48.37 57.8648H13.0409V23.0426H60.9951V45.7803C62.0189 45.8727 62.8779 46.5451 63.2385 47.4658C63.5578 47.2908 63.9137 47.1827 64.2878 47.1497C64.5408 47.1276 64.7922 47.1434 65.0359 47.1915V14.3676C65.0359 12.5107 63.5255 11 61.6688 11H12.3674C10.5107 11 9 12.5107 9 14.3676V58.5385C9 60.3954 10.5107 61.9059 12.3674 61.9059H49.1133C48.8265 61.3253 48.7585 60.6697 48.9273 60.0391C49.0246 59.6763 49.1929 59.3454 49.4202 59.0615ZM57.2972 16.6548C57.2972 15.9681 57.8539 15.4113 58.5406 15.4113H59.7839C60.4707 15.4113 61.0273 15.968 61.0273 16.6548V18.064C61.0273 18.7507 60.4706 19.3074 59.7839 19.3074H58.5406C57.8537 19.3074 57.2972 18.7507 57.2972 18.064V16.6548ZM51.5156 16.6548C51.5156 15.9681 52.0722 15.4113 52.7589 15.4113H54.0024C54.6892 15.4113 55.2457 15.968 55.2457 16.6548V18.064C55.2457 18.7507 54.6891 19.3074 54.0024 19.3074H52.7589C52.0722 19.3074 51.5156 18.7507 51.5156 18.064V16.6548ZM45.7337 16.6548C45.7337 15.9681 46.2906 15.4113 46.9771 15.4113H48.2204C48.9073 15.4113 49.4639 15.968 49.4639 16.6548V18.064C49.4639 18.7507 48.9073 19.3074 48.2204 19.3074H46.9771C46.2906 19.3074 45.7337 18.7507 45.7337 18.064V16.6548Z" fill="url(#paint0_linear_400_15579)"/>
<path d="M68.9921 56.69L68.6185 54.5711C68.568 54.2858 68.2961 54.0952 68.0105 54.1455L66.1262 54.4775C65.9 53.9467 65.6111 53.4495 65.2682 52.9944L66.499 51.5273C66.5884 51.421 66.632 51.2832 66.62 51.1444C66.6077 51.0057 66.5408 50.8777 66.4343 50.7881L64.7863 49.405C64.6797 49.3155 64.5415 49.2721 64.4029 49.2843C64.2642 49.2964 64.1362 49.3631 64.0467 49.4697L62.8171 50.9357C62.3123 50.6785 61.7723 50.4802 61.2067 50.3493V48.4358C61.2067 48.1461 60.9716 47.9109 60.6819 47.9109H58.5301C58.2405 47.9109 58.0053 48.1461 58.0053 48.4358V50.3493C57.4394 50.48 56.9 50.6785 56.3949 50.9357L55.165 49.4699C54.9787 49.2478 54.6477 49.219 54.4256 49.4051L52.7774 50.7881C52.6709 50.8777 52.6041 51.0057 52.5918 51.1444C52.5798 51.2832 52.6233 51.4212 52.7127 51.5278L53.9436 52.9946C53.6013 53.4495 53.3118 53.947 53.0856 54.4777L51.2013 54.1455C50.9164 54.0953 50.6439 54.2858 50.5934 54.5711L50.2199 56.69C50.1957 56.8271 50.227 56.968 50.3066 57.0821C50.3868 57.1963 50.5081 57.2739 50.6452 57.298L52.531 57.6303C52.5617 58.2146 52.6634 58.7798 52.8272 59.318L51.1697 60.2746C51.0492 60.3439 50.9613 60.4588 50.9251 60.5931C50.8891 60.7276 50.9081 60.8707 50.9776 60.9913L52.0533 62.8546C52.1226 62.9752 52.2375 63.0631 52.3718 63.0991C52.4165 63.1111 52.4621 63.117 52.5077 63.117C52.599 63.117 52.6894 63.0932 52.77 63.0467L54.4287 62.0889C54.8188 62.5069 55.2591 62.8772 55.7404 63.1904L55.0854 64.9897C55.038 65.1206 55.0441 65.2649 55.103 65.391C55.1618 65.5172 55.2683 65.6148 55.399 65.6622L57.4205 66.3979C57.4785 66.4191 57.5394 66.4299 57.6001 66.4299C57.6758 66.4299 57.752 66.4135 57.8221 66.3806C57.9483 66.3219 58.0456 66.2153 58.0932 66.0844L58.748 64.2852C59.0288 64.3192 59.3145 64.3367 59.6044 64.3367C59.8943 64.3367 60.1801 64.3189 60.4608 64.2852L61.1158 66.0844C61.1632 66.2153 61.261 66.3219 61.3869 66.3806C61.4569 66.4134 61.5327 66.4299 61.6089 66.4299C61.6695 66.4299 61.7303 66.4194 61.7883 66.3979L63.8101 65.6622C63.9406 65.6148 64.0471 65.5169 64.1059 65.391C64.1647 65.2649 64.171 65.1206 64.1234 64.9897L63.4685 63.1907C63.9493 62.8775 64.3896 62.5069 64.7801 62.0892L66.4388 63.0469C66.5193 63.0932 66.6099 63.1172 66.7012 63.1172C66.7466 63.1172 66.7926 63.1111 66.837 63.0994C66.9715 63.0634 67.0861 62.9752 67.1555 62.8549L68.2313 60.9913C68.3007 60.871 68.3197 60.7276 68.2837 60.5931C68.2476 60.4591 68.1597 60.3442 68.0391 60.2746L66.382 59.3183C66.5457 58.78 66.6471 58.2147 66.6779 57.6306L68.5636 57.2981C68.7008 57.274 68.8225 57.1964 68.9022 57.0823C68.985 56.968 69.0163 56.8271 68.9921 56.69ZM59.6061 60.0572C58.0123 60.0572 56.7199 58.7648 56.7199 57.1708C56.7199 55.5769 58.0124 54.2847 59.6061 54.2847C61.2001 54.2847 62.4925 55.5769 62.4925 57.1708C62.4925 58.7648 61.2001 60.0572 59.6061 60.0572Z" fill="url(#paint1_linear_400_15579)"/>
<path d="M32.5316 42.3453C32.5316 41.6663 32.1337 41.0426 31.5177 40.7566L25.8804 38.1373L31.5179 35.5177C32.1337 35.2314 32.5316 34.6079 32.5316 33.9292V33.8836C32.5316 33.2821 32.2289 32.7298 31.7222 32.4071C31.4419 32.228 31.1154 32.1333 30.7783 32.1333C30.5243 32.1333 30.2693 32.1892 30.0411 32.2952L21.0284 36.4863C20.4128 36.7726 20.0151 37.3962 20.0151 38.0747V38.2C20.0151 38.8777 20.4126 39.5008 21.0286 39.7886L30.0421 43.9801C30.2751 44.088 30.5233 44.1427 30.7796 44.1427C31.1137 44.1427 31.4392 44.0478 31.7222 43.8678C32.2291 43.5437 32.5318 42.9919 32.5318 42.3911L32.5316 42.3453Z" fill="url(#paint2_linear_400_15579)"/>
<path d="M41.4241 27.8627C41.0954 27.4127 40.5666 27.144 40.0095 27.144H39.9646C39.1996 27.144 38.5289 27.6334 38.2959 28.3608L32.3578 46.7598C32.1888 47.2911 32.2839 47.8762 32.6123 48.3261C32.941 48.7759 33.4698 49.0446 34.0269 49.0446H34.0719C34.8366 49.0446 35.5069 48.5551 35.7396 47.8279L41.677 29.4303C41.8476 28.8995 41.753 28.3135 41.4241 27.8627Z" fill="url(#paint3_linear_400_15579)"/>
<path d="M53.0073 36.4861L43.9945 32.295C43.7671 32.1893 43.5124 32.1334 43.2584 32.1334C42.9215 32.1334 42.5949 32.2279 42.3147 32.4066C41.8072 32.7299 41.5044 33.282 41.5044 33.8836V33.9291C41.5044 34.6073 41.902 35.2309 42.5184 35.5184L48.1556 38.1374L42.5183 40.7566C41.9023 41.0426 41.5044 41.6663 41.5044 42.3452V42.3911C41.5044 42.9919 41.8072 43.5436 42.3144 43.8679C42.5964 44.0477 42.9222 44.1427 43.2567 44.1427C43.5127 44.1427 43.7606 44.088 43.9952 43.9797L53.0084 39.7881C53.6238 39.5011 54.0212 38.8778 54.0212 38.2001V38.0748C54.0207 37.3961 53.6231 36.7726 53.0073 36.4861Z" fill="url(#paint4_linear_400_15579)"/>
<defs>
<linearGradient id="paint0_linear_400_15579" x1="6.19462" y1="64.6822" x2="70.6491" y2="72.5658" gradientUnits="userSpaceOnUse">
<stop stop-color="#47CBDA"/>
<stop offset="0.645" stop-color="#3793AA"/>
<stop offset="1" stop-color="#27526A"/>
</linearGradient>
<linearGradient id="paint1_linear_400_15579" x1="49.2713" y1="67.4399" x2="70.9301" y2="69.8815" gradientUnits="userSpaceOnUse">
<stop stop-color="#47CBDA"/>
<stop offset="0.645" stop-color="#3793AA"/>
<stop offset="1" stop-color="#27526A"/>
</linearGradient>
<linearGradient id="paint2_linear_400_15579" x1="19.3885" y1="44.7977" x2="33.8076" y2="46.4675" gradientUnits="userSpaceOnUse">
<stop stop-color="#47CBDA"/>
<stop offset="0.645" stop-color="#3793AA"/>
<stop offset="1" stop-color="#27526A"/>
</linearGradient>
<linearGradient id="paint3_linear_400_15579" x1="31.8008" y1="50.239" x2="42.8481" y2="50.7707" gradientUnits="userSpaceOnUse">
<stop stop-color="#47CBDA"/>
<stop offset="0.645" stop-color="#3793AA"/>
<stop offset="1" stop-color="#27526A"/>
</linearGradient>
<linearGradient id="paint4_linear_400_15579" x1="40.8778" y1="44.7976" x2="55.297" y2="46.4675" gradientUnits="userSpaceOnUse">
<stop stop-color="#47CBDA"/>
<stop offset="0.645" stop-color="#3793AA"/>
<stop offset="1" stop-color="#27526A"/>
</linearGradient>
</defs>
</svg>
