<svg width="92" height="92" viewBox="0 0 92 92" fill="none" xmlns="http://www.w3.org/2000/svg">
<circle opacity="0.1" cx="46" cy="46" r="46" fill="#ED1FD6" fill-opacity="0.27"/>
<circle opacity="0.1" cx="45.9999" cy="45.9999" r="40.3673" fill="#ED1FD6" fill-opacity="0.3"/>
<ellipse opacity="0.1" cx="46.9385" cy="46.0002" rx="33.7959" ry="32.8571" fill="#ED1FD6" fill-opacity="0.34"/>
<ellipse opacity="0.5" cx="46.939" cy="45.9999" rx="26.2857" ry="27.2245" fill="url(#paint0_linear_403_15737)"/>
<path d="M63.2687 49.4021C63.6249 48.2125 63.6979 46.9562 63.482 45.7334C63.2661 44.5106 62.7672 43.3552 62.0251 42.3596C61.2831 41.364 60.3185 40.5557 59.2084 39.9994C58.0983 39.443 56.8735 39.154 55.6318 39.1553C55.1558 39.1553 54.6921 39.2042 54.2386 39.2849C53.9487 38.0721 53.2587 36.9923 52.2799 36.2197C51.301 35.4471 50.0905 35.0268 48.8435 35.0266C46.9819 35.0266 45.3475 35.9522 44.3421 37.3585C44.143 37.3473 43.9468 37.3285 43.745 37.3285C39.3299 37.3285 35.5711 40.0998 34.0869 43.9938C32.6147 44.0069 31.2079 44.6042 30.1762 45.6545C29.1444 46.7047 28.5721 48.1219 28.5852 49.5941C28.5983 51.0663 29.1956 52.473 30.2459 53.5048C31.2961 54.5365 32.7132 55.1088 34.1854 55.0958H62.3112C63.0892 55.0958 63.8354 54.7867 64.3856 54.2365C64.9357 53.6863 65.2448 52.9401 65.2448 52.1621C65.2435 51.5535 65.0522 50.9605 64.6978 50.4658C64.3434 49.9711 63.8445 49.5992 63.2687 49.4021Z" fill="white"/>
<defs>
<linearGradient id="paint0_linear_403_15737" x1="77.2302" y1="60.4743" x2="13.3948" y2="53.1573" gradientUnits="userSpaceOnUse">
<stop stop-color="#6A2EFF"/>
<stop offset="0.32" stop-color="#371A80" stop-opacity="0.937255"/>
<stop offset="0.745" stop-color="#811374"/>
<stop offset="1" stop-color="#ED1FD6"/>
</linearGradient>
</defs>
</svg>
