<svg width="92" height="92" viewBox="0 0 92 92" fill="none" xmlns="http://www.w3.org/2000/svg">
<circle opacity="0.1" cx="46" cy="46" r="46" fill="#ED1FD6" fill-opacity="0.27"/>
<circle opacity="0.1" cx="46.0002" cy="45.9999" r="40.3673" fill="#ED1FD6" fill-opacity="0.3"/>
<ellipse opacity="0.1" cx="46.9385" cy="46.0002" rx="33.7959" ry="32.8571" fill="#ED1FD6" fill-opacity="0.34"/>
<ellipse opacity="0.5" cx="46.939" cy="45.9999" rx="26.2857" ry="27.2245" fill="url(#paint0_linear_618_15798)"/>
<g clip-path="url(#clip0_618_15798)">
<path d="M56.375 50.6875H54.5V55.375H56.375V50.6875Z" fill="white"/>
<path d="M52.625 46H50.75V55.375H52.625V46Z" fill="white"/>
<path d="M42.3125 55.375C41.0697 55.3735 39.8783 54.8792 38.9996 54.0004C38.1208 53.1217 37.6265 51.9303 37.625 50.6875H39.5C39.5 51.2438 39.665 51.7875 39.974 52.25C40.283 52.7126 40.7223 53.073 41.2362 53.2859C41.7501 53.4988 42.3156 53.5545 42.8612 53.446C43.4068 53.3374 43.9079 53.0696 44.3012 52.6762C44.6946 52.2829 44.9624 51.7818 45.071 51.2362C45.1795 50.6906 45.1238 50.1251 44.9109 49.6112C44.698 49.0973 44.3376 48.658 43.875 48.349C43.4125 48.0399 42.8688 47.875 42.3125 47.875V46C43.5557 46 44.748 46.4939 45.6271 47.3729C46.5061 48.252 47 49.4443 47 50.6875C47 51.9307 46.5061 53.123 45.6271 54.0021C44.748 54.8811 43.5557 55.375 42.3125 55.375Z" fill="white"/>
<path d="M58.25 32.875H35.75C35.2529 32.8755 34.7762 33.0732 34.4247 33.4247C34.0732 33.7762 33.8755 34.2529 33.875 34.75V57.25C33.8756 57.7471 34.0733 58.2237 34.4248 58.5752C34.7763 58.9267 35.2529 59.1244 35.75 59.125H58.25C58.7471 59.1243 59.2236 58.9266 59.5751 58.5751C59.9266 58.2236 60.1243 57.7471 60.125 57.25V34.75C60.1244 34.2529 59.9267 33.7763 59.5752 33.4248C59.2237 33.0733 58.7471 32.8756 58.25 32.875ZM58.25 41.3125H45.125V34.75H58.25V41.3125ZM43.25 34.75V41.3125H35.75V34.75H43.25ZM35.75 57.25V43.1875H58.2507L58.2519 57.25H35.75Z" fill="white"/>
</g>
<defs>
<linearGradient id="paint0_linear_618_15798" x1="77.2302" y1="60.4743" x2="13.3948" y2="53.1573" gradientUnits="userSpaceOnUse">
<stop stop-color="#6A2EFF"/>
<stop offset="0.32" stop-color="#371A80" stop-opacity="0.937255"/>
<stop offset="0.745" stop-color="#811374"/>
<stop offset="1" stop-color="#ED1FD6"/>
</linearGradient>
<clipPath id="clip0_618_15798">
<rect width="30" height="30" fill="white" transform="translate(32 31)"/>
</clipPath>
</defs>
</svg>
