<svg width="92" height="92" viewBox="0 0 92 92" fill="none" xmlns="http://www.w3.org/2000/svg">
<circle opacity="0.1" cx="46" cy="46" r="46" fill="#ED1FD6" fill-opacity="0.27"/>
<circle opacity="0.1" cx="46.0002" cy="45.9999" r="40.3673" fill="#ED1FD6" fill-opacity="0.3"/>
<ellipse opacity="0.1" cx="46.9385" cy="46.0002" rx="33.7959" ry="32.8571" fill="#ED1FD6" fill-opacity="0.34"/>
<ellipse opacity="0.5" cx="46.939" cy="45.9999" rx="26.2857" ry="27.2245" fill="url(#paint0_linear_618_15794)"/>
<path fill-rule="evenodd" clip-rule="evenodd" d="M33 34.5446C33 33.14 34.14 32 35.5446 32H42.6696C44.0743 32 45.2143 33.14 45.2143 34.5446V57.9554C45.2143 59.36 44.0743 60.5 42.6696 60.5H35.5446C34.14 60.5 33 59.36 33 57.9554V34.5446ZM36.0536 35.0536V57.4464H42.1607V35.0536H36.0536ZM49.2857 34.5446C49.2857 33.14 50.4257 32 51.8304 32H58.9554C60.36 32 61.5 33.14 61.5 34.5446V41.6696C61.5 43.0743 60.36 44.2143 58.9554 44.2143H51.8304C50.4257 44.2143 49.2857 43.0743 49.2857 41.6696V34.5446ZM52.3393 35.0536V41.1607H58.4464V35.0536H52.3393ZM51.8304 48.2857C50.4257 48.2857 49.2857 49.4257 49.2857 50.8304V57.9554C49.2857 59.36 50.4257 60.5 51.8304 60.5H58.9554C60.36 60.5 61.5 59.36 61.5 57.9554V50.8304C61.5 49.4257 60.36 48.2857 58.9554 48.2857H51.8304ZM52.3393 57.4464V51.3393H58.4464V57.4464H52.3393Z" fill="white"/>
<defs>
<linearGradient id="paint0_linear_618_15794" x1="77.2302" y1="60.4743" x2="13.3948" y2="53.1573" gradientUnits="userSpaceOnUse">
<stop stop-color="#6A2EFF"/>
<stop offset="0.32" stop-color="#371A80" stop-opacity="0.937255"/>
<stop offset="0.745" stop-color="#811374"/>
<stop offset="1" stop-color="#ED1FD6"/>
</linearGradient>
</defs>
</svg>
