<svg width="92" height="92" viewBox="0 0 92 92" fill="none" xmlns="http://www.w3.org/2000/svg">
<circle opacity="0.1" cx="46" cy="46" r="46" fill="#ED1FD6" fill-opacity="0.27"/>
<circle opacity="0.1" cx="46.0002" cy="45.9999" r="40.3673" fill="#ED1FD6" fill-opacity="0.3"/>
<ellipse opacity="0.1" cx="46.9385" cy="46.0002" rx="33.7959" ry="32.8571" fill="#ED1FD6" fill-opacity="0.34"/>
<ellipse opacity="0.5" cx="46.939" cy="45.9999" rx="26.2857" ry="27.2245" fill="url(#paint0_linear_618_15793)"/>
<path d="M36.0266 27.9117C36.4699 28.1247 36.7517 28.573 36.7517 29.0647C36.7517 30.4802 37.2841 31.2952 37.9511 32.2877L37.9996 32.3598C38.5668 33.2025 39.3104 34.3072 39.3104 35.8878C39.3104 37.5006 38.4964 38.9233 37.2569 39.7675C37.583 40.0409 37.872 40.3781 38.1202 40.7799C38.9317 42.0933 39.3104 44.1001 39.3104 46.9836C39.3104 49.904 38.9181 53.411 38.2791 56.2109C37.9614 57.6031 37.5678 58.8874 37.0975 59.8527C36.8643 60.3313 36.5803 60.7988 36.2267 61.1646C35.8769 61.526 35.3366 61.909 34.6196 61.909C33.9025 61.909 33.3622 61.526 33.0124 61.1646C32.6588 60.7988 32.3748 60.3313 32.1416 59.8527C31.6713 58.8874 31.2777 57.6031 30.96 56.2109C30.321 53.411 29.9287 49.904 29.9287 46.9836C29.9287 44.1001 30.3074 42.0933 31.1189 40.7799C31.3671 40.3781 31.6561 40.0409 31.9822 39.7675C30.7427 38.9233 29.9287 37.5006 29.9287 35.8878C29.9287 35.2597 29.9293 34.1801 30.5827 32.7861C31.2222 31.4219 32.4373 29.8545 34.6732 28.0658C35.0573 27.7585 35.5834 27.6986 36.0266 27.9117Z" fill="white"/>
<path d="M43.5746 49.8188C42.6564 49.6647 41.7796 49.3884 40.9616 49.0072C40.9974 48.3141 41.016 47.6354 41.016 46.9836C41.016 46.2914 40.9955 45.6294 40.9505 44.9991C41.7063 45.6205 42.5982 46.0825 43.5746 46.3339V42.2844C43.5746 40.8713 44.7202 39.7258 46.1332 39.7258H52.1034C52.1034 35.9575 49.0487 32.9027 45.2803 32.9027C43.5997 32.9027 42.0609 33.5104 40.8718 34.5181C40.5756 33.1302 39.8896 32.1123 39.4515 31.4623L39.3828 31.3602C41.0498 30.1829 43.0843 29.4912 45.2803 29.4912C50.9327 29.4912 55.5149 34.0734 55.5149 39.7258H61.4851C62.8983 39.7258 64.0437 40.8713 64.0437 42.2844V57.6363C64.0437 59.0493 62.8983 60.1949 61.4851 60.1949H46.1332C44.7202 60.1949 43.5746 59.0493 43.5746 57.6363V49.8188ZM46.9861 49.8188V56.7834H60.6322V43.1373H54.9326C53.7109 46.594 50.6849 49.1984 46.9861 49.8188ZM51.1906 43.1373H46.9861V46.3339C48.7787 45.8725 50.2861 44.7011 51.1906 43.1373Z" fill="white"/>
<defs>
<linearGradient id="paint0_linear_618_15793" x1="77.2302" y1="60.4743" x2="13.3948" y2="53.1573" gradientUnits="userSpaceOnUse">
<stop stop-color="#6A2EFF"/>
<stop offset="0.32" stop-color="#371A80" stop-opacity="0.937255"/>
<stop offset="0.745" stop-color="#811374"/>
<stop offset="1" stop-color="#ED1FD6"/>
</linearGradient>
</defs>
</svg>
