<svg width="92" height="92" viewBox="0 0 92 92" fill="none" xmlns="http://www.w3.org/2000/svg">
<circle opacity="0.1" cx="46" cy="46" r="46" fill="#ED1FD6" fill-opacity="0.27"/>
<circle opacity="0.1" cx="46.0002" cy="46.0002" r="40.3673" fill="#ED1FD6" fill-opacity="0.3"/>
<ellipse opacity="0.1" cx="46.9385" cy="46.0002" rx="33.7959" ry="32.8571" fill="#ED1FD6" fill-opacity="0.34"/>
<ellipse opacity="0.5" cx="46.939" cy="45.9999" rx="26.2857" ry="27.2245" fill="url(#paint0_linear_403_15709)"/>
<path d="M51.0218 35.6567C52.5426 38.12 53.994 42.0967 54.3601 48.4597L57.1764 51.8956C57.8418 52.7282 58.204 53.7625 58.2035 54.8283V61.0205C58.2035 61.2175 58.1415 61.4096 58.0263 61.5694C57.9111 61.7293 57.7485 61.8488 57.5616 61.9111C57.3746 61.9734 57.1728 61.9753 56.9848 61.9166C56.7967 61.8578 56.6319 61.7414 56.5137 61.5838L54.4014 58.7674C54.0898 58.3506 53.6129 58.0164 52.9895 57.6972C52.5877 57.4945 52.2122 57.3367 51.8123 57.1678L51.4443 57.0119C50.13 57.8155 48.5341 58.2042 46.9382 58.2042C45.3422 58.2042 43.7463 57.8155 42.432 57.0119C42.3056 57.067 42.1817 57.1196 42.0603 57.1696C41.6641 57.3367 41.2886 57.4945 40.8868 57.6972C40.2635 58.0164 39.7866 58.3506 39.4749 58.7674L37.3626 61.5838C37.2444 61.7414 37.0796 61.8578 36.8915 61.9166C36.7035 61.9753 36.5017 61.9734 36.3148 61.9111C36.1278 61.8488 35.9653 61.7293 35.8501 61.5694C35.7348 61.4096 35.6729 61.2175 35.6729 61.0205V54.8283C35.6728 53.7623 36.0357 52.728 36.7017 51.8956L36.7093 51.8862L39.52 48.4597C39.8898 42.2206 41.3393 38.2571 42.8507 35.7749C43.7257 34.3349 44.6156 33.4055 45.3103 32.8272C45.6603 32.5341 46.0382 32.2763 46.4387 32.0574C46.5907 31.9694 46.7626 31.9216 46.9382 31.9185C47.1278 31.9185 47.2573 31.9692 47.4075 32.0386C47.4776 32.0699 47.5684 32.1169 47.6798 32.1794C47.9013 32.3034 48.1999 32.493 48.5491 32.7709C49.2494 33.3285 50.145 34.2335 51.0218 35.6567ZM49.7545 43.1838C49.7545 41.1091 48.4928 39.4287 46.9382 39.4287C45.3835 39.4287 44.1218 41.1091 44.1218 43.1838C44.1218 45.2585 45.3835 46.9389 46.9382 46.9389C48.4928 46.9389 49.7545 45.2585 49.7545 43.1838Z" fill="white"/>
<path d="M46.94 59.1428C47.8788 59.1428 48.8157 59.0564 49.7169 58.8818L47.691 61.5836C47.6036 61.7002 47.4902 61.7949 47.3598 61.86C47.2295 61.9252 47.0857 61.9591 46.94 61.9591C46.7942 61.9591 46.6505 61.9252 46.5202 61.86C46.3898 61.7949 46.2764 61.7002 46.189 61.5836L44.1631 58.8818C45.0643 59.0564 46.0031 59.1428 46.94 59.1428Z" fill="white"/>
<defs>
<linearGradient id="paint0_linear_403_15709" x1="77.2302" y1="60.4743" x2="13.3948" y2="53.1573" gradientUnits="userSpaceOnUse">
<stop stop-color="#6A2EFF"/>
<stop offset="0.32" stop-color="#371A80" stop-opacity="0.937255"/>
<stop offset="0.745" stop-color="#811374"/>
<stop offset="1" stop-color="#ED1FD6"/>
</linearGradient>
</defs>
</svg>
