<svg width="60" height="60" viewBox="0 0 60 60" fill="none" xmlns="http://www.w3.org/2000/svg">
<path d="M32.0625 30C32.0625 25.1662 35.8837 21.2512 40.5937 21.2512C45.3075 21.2512 49.125 25.1625 49.125 30C49.125 34.8337 45.3075 38.7487 40.5937 38.7487C35.8875 38.7487 32.0625 34.8375 32.0625 30Z" fill="#1ABCFE"/>
<path d="M15 47.501C15 42.6673 18.8212 38.7485 23.5312 38.7485H32.0625V47.501C32.0625 52.331 28.2412 56.2498 23.5312 56.2498C18.8212 56.2498 15 52.331 15 47.501Z" fill="#0ACF83"/>
<path d="M32.0625 3.75V21.2512H40.5937C45.3075 21.2512 49.125 17.3325 49.125 12.4987C49.125 7.66875 45.3075 3.75 40.5937 3.75H32.0625Z" fill="#FF7262"/>
<path d="M15 12.4987C15 17.3325 18.8212 21.2512 23.5312 21.2512H32.0625V3.75H23.5312C18.8212 3.75 15 7.66875 15 12.4987Z" fill="#F24E1E"/>
<path d="M15 30C15 34.8337 18.8212 38.7487 23.5312 38.7487H32.0625V21.2512H23.5312C18.8212 21.2512 15 25.1625 15 30Z" fill="#A259FF"/>
</svg>
