<svg width="60" height="60" viewBox="0 0 60 60" fill="none" xmlns="http://www.w3.org/2000/svg">
<path d="M10.875 46.125L11.1937 45.6806L26.2312 17.1543L26.2631 16.8524L19.635 4.40245C19.5137 4.17478 19.3238 3.99103 19.0923 3.87719C18.8608 3.76336 18.5993 3.7252 18.3449 3.76812C18.0905 3.81103 17.8561 3.93285 17.6747 4.11634C17.4934 4.29983 17.3743 4.5357 17.3344 4.79057L10.875 46.125Z" fill="#FFC24A"/>
<path d="M11.0625 45.7876L11.3025 45.3188L26.1844 17.0888L19.5731 4.5901C19.4641 4.37274 19.2876 4.19655 19.07 4.08794C18.8524 3.97932 18.6055 3.94413 18.3663 3.98763C18.127 4.03113 17.9083 4.15098 17.7429 4.32923C17.5775 4.50747 17.4743 4.73452 17.4487 4.97635L11.0625 45.7876Z" fill="#FFA712"/>
<path d="M31.095 26.2687L36.03 21.2062L31.0931 11.7918C30.9844 11.5892 30.8229 11.4198 30.6256 11.3017C30.4283 11.1837 30.2027 11.1213 29.9728 11.1213C29.7429 11.1213 29.5173 11.1837 29.32 11.3017C29.1227 11.4198 28.9611 11.5892 28.8525 11.7918L26.2144 16.8205V17.2499L31.095 26.2687Z" fill="#F4BD62"/>
<path d="M31.0069 26.0625L35.8051 21.15L31.0069 12C30.9284 11.802 30.7943 11.6309 30.6207 11.5073C30.4471 11.3838 30.2415 11.3131 30.0286 11.3038C29.8157 11.2945 29.6047 11.3469 29.421 11.4548C29.2373 11.5627 29.0887 11.7215 28.9932 11.9119L26.3419 17.0288L26.2632 17.2894L31.0069 26.0625Z" fill="#FFA50E"/>
<path d="M10.8789 46.1269L11.0233 45.9806L11.5464 45.7687L30.7839 26.6025L31.0277 25.9387L26.2295 16.7925L10.8789 46.1269Z" fill="#F6820C"/>
<path d="M31.71 55.7926L49.125 46.082L44.1487 15.4614C44.1131 15.2455 44.0186 15.0436 43.8757 14.8779C43.7329 14.7123 43.5471 14.5891 43.3388 14.5221C43.1306 14.4551 42.9079 14.4467 42.6952 14.498C42.4825 14.5492 42.288 14.6581 42.1331 14.8126L10.875 46.1251L28.1869 55.7907C28.7251 56.0911 29.3312 56.2487 29.9475 56.2487C30.5638 56.2487 31.1699 56.0911 31.7081 55.7907" fill="#FDE068"/>
<path d="M48.9656 46.0012L44.0306 15.6112C44.0219 15.4047 43.9521 15.2055 43.8302 15.0387C43.7082 14.8719 43.5394 14.745 43.3453 14.6742C43.1512 14.6033 42.9404 14.5916 42.7397 14.6406C42.5389 14.6896 42.3572 14.797 42.2175 14.9493L11.0625 46.0668L28.1831 55.6293C28.7171 55.9272 29.3183 56.0835 29.9297 56.0835C30.5411 56.0835 31.1423 55.9272 31.6762 55.6293L48.9656 46.0012Z" fill="#FCCA3F"/>
<path d="M31.71 55.5C31.1718 55.8003 30.5657 55.958 29.9494 55.958C29.333 55.958 28.727 55.8003 28.1888 55.5L11.0175 45.9787L10.875 46.125L28.1869 55.7906C28.7251 56.0909 29.3312 56.2486 29.9475 56.2486C30.5638 56.2486 31.1699 56.0909 31.7081 55.7906L49.125 46.0818L49.0819 45.8193L31.71 55.5Z" fill="#EEAB37"/>
</svg>
