<svg width="60" height="60" viewBox="0 0 60 60" fill="none" xmlns="http://www.w3.org/2000/svg">
<path d="M44.53 56.2489C44.3075 56.3664 44.32 56.4139 44.5425 56.3014C44.6076 56.2735 44.667 56.2336 44.7175 56.1839C44.7175 56.1439 44.7125 56.1489 44.53 56.2489ZM44.975 56.0139C44.87 56.0964 44.87 56.1014 44.9975 56.0364C45.0675 56.0014 45.1275 55.9614 45.1275 55.9489C45.1275 55.9014 45.0975 55.9139 44.975 56.0139ZM45.2675 55.8364C45.1625 55.9189 45.1625 55.9239 45.29 55.8589C45.36 55.8239 45.42 55.7839 45.42 55.7714C45.42 55.7239 45.39 55.7364 45.2675 55.8364ZM45.56 55.6614C45.455 55.7439 45.455 55.7489 45.5825 55.6839C45.6525 55.6489 45.7125 55.6089 45.7125 55.5964C45.7125 55.5489 45.6825 55.5614 45.56 55.6614ZM45.965 55.3989C45.76 55.5289 45.695 55.6164 45.8775 55.5164C46.0075 55.4414 46.2175 55.2814 46.1825 55.2764C46.1058 55.3093 46.0329 55.3504 45.965 55.3989ZM28.0325 0.0089204C27.9025 0.0214204 27.4925 0.0614204 27.1225 0.0914204C18.6025 0.85892 10.62 5.45642 5.565 12.5239C2.7704 16.403 0.953917 20.8997 0.27 25.6314C0.03 27.2789 0 27.7664 0 30.0014C0 32.2364 0.03 32.7214 0.27 34.3714C1.9 45.6364 9.9175 55.1014 20.79 58.6089C22.7375 59.2364 24.79 59.6639 27.1225 59.9214C28.0325 60.0214 31.96 60.0214 32.87 59.9214C36.8975 59.4764 40.3125 58.4789 43.6775 56.7614C44.1925 56.4964 44.2925 56.4264 44.2225 56.3689C42.5788 54.1971 40.9504 52.0137 39.3375 49.8189L34.54 43.3389L28.53 34.4439C26.5317 31.4675 24.5142 28.5042 22.4775 25.5539C22.455 25.5489 22.43 29.5014 22.42 34.3264C22.4025 42.7764 22.3975 43.1164 22.29 43.3164C22.188 43.5501 22.0051 43.7391 21.775 43.8489C21.5875 43.9439 21.4225 43.9614 20.5375 43.9614H19.5225L19.2525 43.7914C19.0859 43.6864 18.9504 43.5388 18.86 43.3639L18.7375 43.0989L18.75 31.3414L18.7675 19.5789L18.95 19.3514C19.0726 19.2074 19.2199 19.0863 19.385 18.9939C19.625 18.8764 19.72 18.8639 20.735 18.8639C21.9325 18.8639 22.13 18.9114 22.4425 19.2514C24.8754 22.872 27.2879 26.5063 29.68 30.1539C33.575 36.0589 38.8975 44.1214 41.515 48.0814L46.265 55.2764L46.505 55.1189C48.7906 53.5986 50.8631 51.7801 52.6675 49.7114C56.4474 45.3856 58.8988 40.0609 59.7275 34.3764C59.9675 32.7289 59.9975 32.2414 59.9975 30.0064C59.9975 27.7714 59.9675 27.2864 59.7275 25.6364C58.0975 14.3714 50.08 4.90642 39.2075 1.39892C37.1757 0.75204 35.0832 0.313942 32.9625 0.0914204C32.4 0.0339204 28.5225 -0.0310796 28.0375 0.0164204L28.0325 0.0089204ZM40.3125 18.1539C40.4523 18.2242 40.5767 18.3216 40.6785 18.4405C40.7802 18.5594 40.8572 18.6974 40.905 18.8464C40.9525 18.9989 40.9625 22.2589 40.9525 29.6064L40.935 40.1514L39.075 37.3014L37.21 34.4514V26.7864C37.21 21.8314 37.2325 19.0464 37.2675 18.9114C37.3099 18.7556 37.3831 18.6099 37.4827 18.4828C37.5823 18.3557 37.7063 18.2498 37.8475 18.1714C38.0875 18.0489 38.175 18.0364 39.0975 18.0364C39.965 18.0364 40.1175 18.0489 40.3125 18.1539Z" fill="black"/>
</svg>
