<svg width="60" height="60" viewBox="0 0 60 60" fill="none" xmlns="http://www.w3.org/2000/svg">
<path d="M32.1984 4.3101C30.8676 3.56162 29.1324 3.56498 27.8004 4.3101C21.1292 7.99176 14.4578 11.6745 7.7853 15.3545C6.48692 16.0375 5.6112 17.4318 5.62516 18.879V41.124C5.61579 42.5994 6.53666 44.0072 7.86853 44.6809C9.78508 45.7005 11.6471 46.8236 13.5983 47.7754C15.8522 48.8829 18.6721 49.1278 20.9535 47.9728C22.8054 47.0156 23.628 44.8866 23.6256 42.93C23.6406 35.5886 23.628 28.2471 23.6314 20.9055C23.6754 20.5793 23.4304 20.2305 23.0745 20.2384C22.2219 20.2249 21.3682 20.2305 20.5157 20.2361C20.1936 20.2058 19.8791 20.4733 19.9035 20.7971C19.8921 28.0913 19.9057 35.3876 19.8966 42.6829C19.9151 43.692 19.2334 44.6618 18.2609 45.0026C16.0147 45.7899 9.60371 41.6273 9.60371 41.6273C9.36843 41.5183 9.21903 41.2631 9.2421 41.0096C9.2421 33.6705 9.24324 26.3312 9.2421 18.9932C9.20975 18.6973 9.3921 18.4309 9.66378 18.3101C16.3131 14.6501 22.959 10.981 29.6083 7.3188C29.8393 7.16466 30.1612 7.16513 30.3917 7.31993C37.041 10.981 43.6881 14.6468 50.3385 18.3069C50.6111 18.4275 50.7857 18.6984 50.7579 18.9932C50.7568 26.3312 50.7602 33.6705 50.7557 41.0087C50.7754 41.2684 50.6411 41.52 50.3987 41.634C43.8114 45.2741 37.1492 48.7969 30.6216 52.5428C30.3367 52.7061 30.0141 52.8911 29.6949 52.7111C27.9784 51.7616 26.2826 50.7752 24.5717 49.8165C24.3857 49.7004 24.1489 49.6506 23.9548 49.7805C23.1877 50.1848 22.4662 50.5121 21.5854 50.8609C20.3482 51.3506 20.5459 51.5509 21.6617 52.2009C23.6625 53.3333 25.6667 54.4611 27.6675 55.5945C28.9847 56.4165 30.7545 56.475 32.1141 55.7154C38.7864 52.0384 45.4567 48.357 52.1304 44.6799C53.4587 44.0025 54.3842 42.6004 54.3748 41.1238V18.879C54.3877 17.4612 53.5455 16.0918 52.2862 15.3986C45.5917 11.699 38.8941 8.00745 32.1984 4.3101Z" fill="#8CC84B"/>
<path d="M42.2663 21.0115C39.6475 19.6105 36.5319 19.5359 33.6218 19.7191C31.5193 19.9268 29.3081 20.5069 27.7764 22.0141C26.2054 23.5291 25.8634 25.9756 26.6096 27.9533C27.1444 29.3509 28.4904 30.2598 29.8824 30.7405C31.6755 31.3735 33.5588 31.5693 35.4426 31.765C37.1608 31.9435 38.8796 32.1222 40.5311 32.6328C41.2058 32.8563 41.9914 33.1983 42.198 33.9323C42.3889 34.8016 42.1796 35.812 41.4739 36.4159C39.2321 38.1903 32.9963 37.9184 30.7813 36.5219C29.8858 35.9269 29.4999 34.8738 29.343 33.8701C29.3256 33.5573 29.0738 33.2704 28.7342 33.2943C27.8839 33.2841 27.0336 33.2864 26.1833 33.2931C25.8866 33.2682 25.5782 33.4793 25.5619 33.7821C25.3871 38.3791 29.6091 40.3831 33.57 40.8243C35.8329 41.0399 38.1456 41.0275 40.374 40.5419C42.0491 40.1605 43.7288 39.4581 44.8819 38.1679C46.3039 36.5999 46.5834 34.2653 45.9458 32.3121C45.4583 30.8547 44.0649 29.9198 42.6407 29.4389C40.7038 28.7748 38.4084 28.4178 36.6542 28.2507C34.1044 28.0079 31.0744 28.1071 30.3527 26.4316C30.0649 25.5543 30.3098 24.4649 31.116 23.9253C33.2492 22.4783 37.5908 22.6705 39.7999 23.7514C40.8143 24.2594 41.4021 25.3026 41.6447 26.3558C41.6897 26.6652 41.8978 26.9881 42.2559 26.9746C43.1004 26.9914 43.945 26.9791 44.7893 26.9802C45.0793 27.0004 45.3969 26.8368 45.4536 26.5398C45.4178 24.3385 44.2937 22.0851 42.2663 21.0115Z" fill="#8CC84B"/>
</svg>
