<svg width="60" height="60" viewBox="0 0 60 60" fill="none" xmlns="http://www.w3.org/2000/svg">
<g clip-path="url(#clip0_445_15531)">
<path d="M30.0009 34.1558C32.3194 34.1558 34.199 32.2762 34.199 29.9576C34.199 27.6391 32.3194 25.7595 30.0009 25.7595C27.6823 25.7595 25.8027 27.6391 25.8027 29.9576C25.8027 32.2762 27.6823 34.1558 30.0009 34.1558Z" fill="#00D8FF"/>
<path fill-rule="evenodd" clip-rule="evenodd" d="M30.3093 21.1086C37.4671 21.1574 45.2765 21.6796 50.6371 26.4599C50.7946 26.6005 50.9465 26.7467 51.0946 26.8977C52.3593 28.1867 53.0203 30.268 51.9993 31.9808C49.9049 35.4974 45.2212 37.0311 40.6865 37.9752C33.9046 39.3871 26.8134 39.3983 20.0343 38.1552C16.1334 37.4389 12.1443 36.1836 9.37214 33.5577C8.29307 32.5358 7.37057 31.1914 7.51495 29.6952C7.74932 27.2746 10.0715 25.7211 12.0262 24.6692C17.4553 21.748 24.0703 21.0946 30.3093 21.1086ZM29.7899 22.2083C23.0174 22.2542 15.6871 22.6864 10.4578 27.0167C10.2749 27.1677 10.0987 27.3261 9.92901 27.4921C9.81932 27.5989 9.71339 27.7105 9.6112 27.8249C8.69339 28.8561 8.37745 30.5127 9.2437 31.7511C10.1156 32.9971 11.4393 33.8961 12.8024 34.6292C17.9006 37.3705 23.9249 37.8571 29.7984 37.8777C35.7449 37.8992 41.8771 37.3574 47.1299 34.6414C49.2224 33.5586 51.5774 31.9686 51.494 29.9211C51.4171 28.0424 49.5853 26.8817 48.2137 26.053C47.8425 25.8289 47.4609 25.6217 47.0737 25.4267C41.8593 22.8139 35.7487 22.1952 29.7899 22.2083Z" fill="#00D8FF"/>
<path fill-rule="evenodd" clip-rule="evenodd" d="M39.4828 10.034C42.1012 10.1006 43.4578 13.2487 43.6369 15.5737C43.6725 16.0359 43.6856 16.5 43.68 16.964C43.6744 17.4665 43.6472 17.969 43.6031 18.4696C43.0509 24.6684 40.2206 30.5718 36.8878 36.0234C33.6281 41.3559 29.6531 46.6734 24.2456 49.1446C22.4578 49.9621 20.3316 50.4665 18.7491 49.5543C16.5797 48.3046 16.3425 45.3815 16.3828 43.1643C16.3931 42.6196 16.4287 42.0749 16.485 41.5321C17.3184 33.5071 21.3862 25.905 26.4769 19.3556C29.4469 15.5343 32.9803 11.744 37.3819 10.3715C38.0747 10.155 38.625 10.0237 39.4828 10.034ZM39.3572 11.1328C36.2831 11.1815 33.5231 13.4596 31.0791 15.8268C24.6534 22.049 19.9181 30.3243 18.0131 39.0028C17.8659 39.675 17.7422 40.3518 17.6512 41.0334C17.5809 41.5612 17.5294 42.0918 17.5022 42.6243C17.4806 43.0481 17.4731 43.4728 17.4862 43.8975C17.4956 44.2293 17.5172 44.5612 17.5537 44.8912C17.5809 45.1434 17.6175 45.3946 17.6634 45.644C17.6981 45.8287 17.7384 46.0125 17.7853 46.1953C17.8237 46.3434 17.8669 46.4906 17.9156 46.6368C18.2991 47.7928 19.2872 48.8971 20.6137 48.9337C23.7084 49.0181 26.6222 46.7615 29.1412 44.309C33.5634 40.005 36.8587 34.5965 39.4331 28.9115C41.5106 24.3215 43.4109 19.3321 42.3497 14.28C42.3094 14.0887 42.2625 13.8993 42.2091 13.7118C42.165 13.559 42.1153 13.4081 42.0609 13.259C41.6484 12.135 40.6781 11.13 39.3572 11.1328Z" fill="#00D8FF"/>
<path fill-rule="evenodd" clip-rule="evenodd" d="M20.7272 10.0753C24.0685 10.14 27.0694 12.4078 29.7338 14.9475C34.5957 19.5815 38.1816 25.4765 40.9022 31.6809C43.0097 36.4875 44.9485 41.8828 43.2253 46.9547C42.6825 48.5531 41.3091 50.0156 39.4782 50.0531C36.121 50.1206 33.0094 47.6793 30.3094 45.0515C23.536 38.4572 18.5072 29.7515 16.7841 20.519C16.6603 19.859 16.5619 19.1934 16.4944 18.525C16.4391 17.9793 16.4044 17.4309 16.395 16.8825C16.3875 16.44 16.3969 15.9975 16.4278 15.5568C16.4485 15.2625 16.4785 14.97 16.5188 14.6784C16.5572 14.4047 16.606 14.1318 16.6669 13.8618C16.7072 13.6828 16.7522 13.5056 16.8038 13.3293C17.3091 11.6015 18.6235 10.0622 20.7272 10.0753ZM20.6007 11.175C18.6441 11.2181 17.7488 13.5253 17.5688 15.1443C17.5322 15.4762 17.5097 15.8109 17.4994 16.1456C17.4863 16.5731 17.4919 17.0015 17.5135 17.429C17.821 23.6156 20.5866 29.5968 23.9241 35.0737C27.0666 40.23 30.8616 45.3656 36.0816 48.0056C37.5891 48.7678 39.421 49.3668 40.7232 48.6468C42.3563 47.7431 42.5569 45.5897 42.6441 43.9847C42.6675 43.5478 42.6703 43.109 42.6563 42.6712C42.6394 42.1218 42.5963 41.5734 42.5316 41.0278C41.9297 35.9306 39.6722 31.1072 37.0791 26.549C33.8522 20.879 29.8988 15.2278 24.3038 12.2756C23.145 11.6643 21.8907 11.1647 20.6007 11.175Z" fill="#00D8FF"/>
</g>
<defs>
<clipPath id="clip0_445_15531">
<rect width="60" height="60" fill="white"/>
</clipPath>
</defs>
</svg>
