<svg width="60" height="60" viewBox="0 0 60 60" fill="none" xmlns="http://www.w3.org/2000/svg">
<path d="M54.8201 29.0175C54.3151 27.7975 53.2326 27.505 52.5001 27.435V20C52.5001 17.2425 50.2576 15 47.5001 15H32.5001V11.525C33.2626 10.84 33.7501 9.855 33.7501 8.75C33.7501 7.75544 33.355 6.80161 32.6517 6.09835C31.9485 5.39509 30.9947 5 30.0001 5C29.0055 5 28.0517 5.39509 27.3484 6.09835C26.6452 6.80161 26.2501 7.75544 26.2501 8.75C26.2501 9.855 26.7376 10.84 27.5001 11.525V15H12.5001C9.7426 15 7.5001 17.2425 7.5001 20V27.4925L7.2951 27.5075C6.66503 27.553 6.07554 27.8353 5.64514 28.2977C5.21474 28.7601 4.97535 29.3683 4.9751 30V35C4.9751 35.663 5.23849 36.2989 5.70733 36.7678C6.17617 37.2366 6.81206 37.5 7.4751 37.5H7.5001V50C7.5001 52.7575 9.7426 55 12.5001 55H47.5001C50.2576 55 52.5001 52.7575 52.5001 50V37.5C53.1631 37.5 53.799 37.2366 54.2679 36.7678C54.7367 36.2989 55.0001 35.663 55.0001 35V30.155C55.0289 29.767 54.9673 29.3776 54.8201 29.0175ZM12.5001 50V20H47.5001L47.5026 29.99L47.5001 30V35L47.5026 35.0125L47.5051 50H12.5001Z" fill="#DFEDF0"/>
<path d="M21.25 35C23.3211 35 25 32.7614 25 30C25 27.2386 23.3211 25 21.25 25C19.1789 25 17.5 27.2386 17.5 30C17.5 32.7614 19.1789 35 21.25 35Z" fill="#DFEDF0"/>
<path d="M38.75 35C40.8211 35 42.5 32.7614 42.5 30C42.5 27.2386 40.8211 25 38.75 25C36.6789 25 35 27.2386 35 30C35 32.7614 36.6789 35 38.75 35Z" fill="#DFEDF0"/>
<path d="M20 40H40V45H20V40Z" fill="#DFEDF0"/>
</svg>
