<svg width="60" height="60" viewBox="0 0 60 60" fill="none" xmlns="http://www.w3.org/2000/svg">
<path d="M57.5 7.5H2.5C1.11929 7.5 0 8.61929 0 10V50C0 51.3807 1.11929 52.5 2.5 52.5H57.5C58.8807 52.5 60 51.3807 60 50V10C60 8.61929 58.8807 7.5 57.5 7.5Z" fill="#38B1E7"/>
<path d="M59.8002 50.7003C59.6171 51.1701 59.3031 51.5776 58.8954 51.8745C58.4878 52.1714 58.0036 52.3452 57.5002 52.3753L2.5002 52.5003C2.00735 52.5023 1.52488 52.3587 1.11343 52.0873C0.701981 51.816 0.379913 51.4291 0.187702 50.9753C0.00476328 50.5208 -0.0406354 50.0227 0.0571455 49.5426C0.154926 49.0626 0.391578 48.6219 0.737702 48.2753L22.3502 27.1628C24.4952 25.1934 27.3055 24.108 30.2174 24.1242C33.1293 24.1404 35.9273 25.2571 38.0502 27.2503L59.2502 48.0128C59.5939 48.3583 59.829 48.7969 59.9267 49.2743C60.0245 49.7518 59.9805 50.2474 59.8002 50.7003Z" fill="#299ACC"/>
<path d="M59.8002 9.30002C59.6171 8.83016 59.3031 8.42265 58.8954 8.12578C58.4878 7.82891 58.0036 7.65512 57.5002 7.62502L2.5002 7.50002C2.00735 7.49796 1.52488 7.64162 1.11343 7.91296C0.701981 8.18429 0.379913 8.57119 0.187702 9.02502C0.00476328 9.47945 -0.0406354 9.97762 0.0571455 10.4576C0.154926 10.9377 0.391578 11.3784 0.737702 11.725L22.3502 32.8375C24.4952 34.8069 27.3055 35.8923 30.2174 35.8761C33.1293 35.8598 35.9273 34.7432 38.0502 32.75L59.2502 11.9875C59.5939 11.6419 59.829 11.2034 59.9267 10.7259C60.0245 10.2485 59.9805 9.75283 59.8002 9.30002Z" fill="#6AC1E7"/>
</svg>
