<svg width="60" height="60" viewBox="0 0 60 60" fill="none" xmlns="http://www.w3.org/2000/svg">
<g clip-path="url(#clip0_493_15564)">
<path fill-rule="evenodd" clip-rule="evenodd" d="M32.0479 60H3.31154C1.48209 60 0 58.517 0 56.6883V3.31152C0 1.48232 1.48232 0 3.31154 0H56.6887C58.5174 0 60 1.48232 60 3.31152V56.6883C60 58.5172 58.5172 60 56.6887 60H41.3991V36.7647H49.1982L50.3659 27.7095H41.3991V21.9283C41.3991 19.3066 42.1271 17.52 45.8866 17.52L50.6816 17.5179V9.41887C49.8524 9.30852 47.006 9.06197 43.6944 9.06197C36.781 9.06197 32.0479 13.2819 32.0479 21.0315V27.7095H24.2289V36.7647H32.0479V60Z" fill="#4460A0"/>
</g>
<defs>
<clipPath id="clip0_493_15564">
<rect width="60" height="60" fill="white"/>
</clipPath>
</defs>
</svg>
