<svg width="60" height="60" viewBox="0 0 60 60" fill="none" xmlns="http://www.w3.org/2000/svg">
<g clip-path="url(#clip0_493_15550)">
<path d="M47.1429 0H12.8571C5.75634 0 0 5.75634 0 12.8571V47.1429C0 54.2437 5.75634 60 12.8571 60H47.1429C54.2437 60 60 54.2437 60 47.1429V12.8571C60 5.75634 54.2437 0 47.1429 0Z" fill="url(#paint0_radial_493_15550)"/>
<path d="M47.1429 0H12.8571C5.75634 0 0 5.75634 0 12.8571V47.1429C0 54.2437 5.75634 60 12.8571 60H47.1429C54.2437 60 60 54.2437 60 47.1429V12.8571C60 5.75634 54.2437 0 47.1429 0Z" fill="url(#paint1_radial_493_15550)"/>
<path d="M47.1429 0H12.8571C5.75634 0 0 5.75634 0 12.8571V47.1429C0 54.2437 5.75634 60 12.8571 60H47.1429C54.2437 60 60 54.2437 60 47.1429V12.8571C60 5.75634 54.2437 0 47.1429 0Z" fill="url(#paint2_radial_493_15550)"/>
<path d="M45 18C45 19.6568 43.6568 21 42 21C40.3432 21 39 19.6568 39 18C39 16.3431 40.3432 15 42 15C43.6568 15 45 16.3431 45 18Z" fill="white"/>
<path fill-rule="evenodd" clip-rule="evenodd" d="M30 41C36.0751 41 41 36.0751 41 30C41 23.9249 36.0751 19 30 19C23.9249 19 19 23.9249 19 30C19 36.0751 23.9249 41 30 41ZM30 36.6C33.6452 36.6 36.6 33.6452 36.6 30C36.6 26.3548 33.6452 23.4 30 23.4C26.3548 23.4 23.4 26.3548 23.4 30C23.4 33.6452 26.3548 36.6 30 36.6Z" fill="white"/>
<path fill-rule="evenodd" clip-rule="evenodd" d="M9 29.16C9 22.1034 9 18.5749 10.3733 15.8797C11.5813 13.5089 13.5089 11.5813 15.8797 10.3733C18.5749 9 22.1034 9 29.16 9H30.84C37.8966 9 41.425 9 44.1202 10.3733C46.4911 11.5813 48.4187 13.5089 49.6266 15.8797C51 18.5749 51 22.1034 51 29.16V30.84C51 37.8966 51 41.425 49.6266 44.1202C48.4187 46.4911 46.4911 48.4187 44.1202 49.6266C41.425 51 37.8966 51 30.84 51H29.16C22.1034 51 18.5749 51 15.8797 49.6266C13.5089 48.4187 11.5813 46.4911 10.3733 44.1202C9 41.425 9 37.8966 9 30.84V29.16ZM29.16 13.2H30.84C34.4377 13.2 36.8832 13.2033 38.7736 13.3577C40.6151 13.5082 41.5567 13.7808 42.2136 14.1155C43.7941 14.9209 45.079 16.2059 45.8844 17.7864C46.2191 18.4433 46.4919 19.3849 46.6423 21.2264C46.7966 23.1168 46.8 25.5623 46.8 29.16V30.84C46.8 34.4377 46.7966 36.8832 46.6423 38.7736C46.4919 40.6151 46.2191 41.5567 45.8844 42.2136C45.079 43.7941 43.7941 45.079 42.2136 45.8844C41.5567 46.2191 40.6151 46.4919 38.7736 46.6423C36.8832 46.7966 34.4377 46.8 30.84 46.8H29.16C25.5623 46.8 23.1168 46.7966 21.2264 46.6423C19.3849 46.4919 18.4433 46.2191 17.7864 45.8844C16.2059 45.079 14.9209 43.7941 14.1155 42.2136C13.7808 41.5567 13.5082 40.6151 13.3577 38.7736C13.2033 36.8832 13.2 34.4377 13.2 30.84V29.16C13.2 25.5623 13.2033 23.1168 13.3577 21.2264C13.5082 19.3849 13.7808 18.4433 14.1155 17.7864C14.9209 16.2059 16.2059 14.9209 17.7864 14.1155C18.4433 13.7808 19.3849 13.5082 21.2264 13.3577C23.1168 13.2033 25.5623 13.2 29.16 13.2Z" fill="white"/>
</g>
<defs>
<radialGradient id="paint0_radial_493_15550" cx="0" cy="0" r="1" gradientUnits="userSpaceOnUse" gradientTransform="translate(21.4286 45) rotate(-55.3758) scale(54.6849)">
<stop stop-color="#B13589"/>
<stop offset="0.79309" stop-color="#C62F94"/>
<stop offset="1" stop-color="#8A3AC8"/>
</radialGradient>
<radialGradient id="paint1_radial_493_15550" cx="0" cy="0" r="1" gradientUnits="userSpaceOnUse" gradientTransform="translate(19.2857 62.1429) rotate(-65.1363) scale(48.4161)">
<stop stop-color="#E0E8B7"/>
<stop offset="0.444662" stop-color="#FB8A2E"/>
<stop offset="0.71474" stop-color="#E2425C"/>
<stop offset="1" stop-color="#E2425C" stop-opacity="0"/>
</radialGradient>
<radialGradient id="paint2_radial_493_15550" cx="0" cy="0" r="1" gradientUnits="userSpaceOnUse" gradientTransform="translate(-3.21428 2.14286) rotate(-8.1301) scale(83.3376 17.8251)">
<stop offset="0.156701" stop-color="#406ADC"/>
<stop offset="0.467799" stop-color="#6A45BE"/>
<stop offset="1" stop-color="#6A45BE" stop-opacity="0"/>
</radialGradient>
<clipPath id="clip0_493_15550">
<rect width="60" height="60" fill="white"/>
</clipPath>
</defs>
</svg>
