<svg width="60" height="60" viewBox="0 0 60 60" fill="none" xmlns="http://www.w3.org/2000/svg">
<path d="M6.29346 29.2697C6.29346 35.5845 8.80198 41.6406 13.2672 46.1058C17.7324 50.571 23.7885 53.0795 30.1032 53.0795C36.418 53.0795 42.4741 50.571 46.9393 46.1058C51.4045 41.6406 53.913 35.5845 53.913 29.2697C53.913 22.955 51.4045 16.8989 46.9393 12.4337C42.4741 7.96848 36.418 5.45996 30.1032 5.45996C23.7885 5.45996 17.7324 7.96848 13.2672 12.4337C8.80198 16.8989 6.29346 22.955 6.29346 29.2697Z" fill="#4766AC"/>
<path d="M51.6609 39.3837C47.8552 47.474 39.6289 53.0797 30.1032 53.0797C16.9622 53.0797 6.29348 42.411 6.29348 29.2699C6.28669 24.4432 7.7544 19.7295 10.5002 15.7598C9.01277 18.9237 8.2439 22.3775 8.24868 25.8735C8.24868 39.0146 18.9174 49.6833 32.0584 49.6833C40.1838 49.6833 47.3635 45.6043 51.6609 39.3837Z" fill="#3F5A98"/>
<path d="M51.6607 39.3835C47.3634 45.6042 40.1837 49.6831 32.0583 49.6831C18.9172 49.6831 8.24856 39.0145 8.24856 25.8734C8.24378 22.3773 9.01265 18.9235 10.5 15.7596C11.0893 14.907 11.7333 14.0935 12.4278 13.3242C12.3607 13.5796 12.2975 13.8363 12.2388 14.0949C11.3084 16.6809 10.8342 19.4088 10.8372 22.1571C10.8372 35.2975 21.5059 45.9669 34.6469 45.9669C41.5572 45.9669 47.7842 43.0162 52.1352 38.3076C51.986 38.6702 51.8279 39.0289 51.6607 39.3835Z" fill="#32539D"/>
<path d="M52.1352 38.3084C47.7842 43.0169 41.5572 45.9676 34.6469 45.9676C21.5058 45.9676 10.8372 35.2983 10.8372 22.1579C10.8372 19.3285 11.3314 16.6141 12.2387 14.0957C11.8447 15.8317 11.6464 17.6064 11.6475 19.3866C11.6475 32.5277 22.3168 43.1964 35.4572 43.1964C42.4677 43.1964 48.7745 40.1601 53.1332 35.3322C52.8667 36.3452 52.5333 37.3395 52.1352 38.3084Z" fill="#3A5AA3"/>
<path d="M15.8637 47.1611C12.3428 45.0322 11.0351 43.9671 9.05435 40.3504C7.17995 36.9292 6.20014 33.0899 6.20584 29.1888C6.20584 24.3883 7.6617 19.9249 10.1558 16.217C10.9521 15.0331 12.9015 13.7835 13.8951 12.7676C13.0433 13.9272 11.2445 15.3134 10.6028 16.6243C7.94393 22.0564 7.16172 28.6525 8.873 35.237C9.29058 36.8492 9.85043 38.421 10.546 39.9341C12.2221 43.5763 13.0101 44.7289 15.8637 47.1611ZM32.6464 26.8397C32.6464 26.8397 33.3979 25.8231 35.1424 26.7554C35.1424 26.7554 35.7771 26.7024 36.3384 26.0536C36.3384 26.0536 37.5982 26.0785 38.7706 28.0369C38.7706 28.0369 40.2743 28.2272 38.406 26.18C36.5376 24.1329 35.016 24.8813 35.1284 24.0205C35.2407 23.1598 36.5529 23.3839 36.9807 22.306C37.4086 21.2288 36.0115 20.091 35.5128 19.3924C35.0134 18.6938 35.5128 18.0655 37.1091 18.2654C38.7054 18.4646 39.1135 17.8152 38.5752 17.0324C38.0369 16.2489 39.6652 16.2572 40.6236 16.7923C41.5814 17.3267 44.7281 17.4404 45.2268 16.752C45.7261 16.0637 47.023 13.6488 47.9214 15.9437C48.8192 18.2386 51.2559 17.344 51.7737 23.8909C52.2909 30.4378 53.0438 31.1447 52.1083 33.3744C51.1729 35.6036 49.6608 32.3528 48.9437 31.7449C48.226 31.137 47.9923 31.8541 48.0236 33.3042C48.0549 34.7537 47.8212 37.7784 47.0415 36.9368C46.2619 36.0946 44.716 30.6121 43.345 31.8177C41.9741 33.0232 41.3349 36.3909 39.464 35.7204C37.5931 35.05 38.7853 33.4574 37.2138 32.9089C35.6424 32.3598 34.0345 32.3266 33.8577 31.0885C33.6814 29.8497 32.5346 30.7341 32.7664 29.1531C32.9976 27.5727 32.3431 27.1276 32.6464 26.8397Z" fill="#6C8CC7"/>
<path d="M49.4405 37.6001C49.4405 37.6001 49.3786 38.2437 49.5178 38.1805C49.6564 38.118 49.6666 38.102 49.7477 38.1729C49.8288 38.2437 49.8294 37.9813 49.9533 37.9832C50.0772 37.9845 49.9488 38.1416 50.051 38.1467C50.1531 38.1518 50.2994 37.051 50.5037 36.4827C50.5037 36.4827 50.7527 36.3358 50.542 35.8952C50.3313 35.4546 51.0081 34.7899 50.6761 34.675C50.3441 34.56 50.4973 35.2758 50.2164 35.5312C49.9354 35.7867 50.1525 36.0676 50.1333 36.3103C50.1142 36.5529 50.1742 36.6219 49.7994 36.6768C49.4246 36.7317 49.2969 37.3958 49.4405 37.6001ZM19.9127 17.8118C19.9127 17.8118 19.0998 16.5354 20.6853 15.787C22.2708 15.0393 21.1323 14.5349 21.214 14.2258C21.2951 13.9174 22.4662 13.4047 23.2063 13.7789C23.9457 14.153 24.1328 14.1447 24.8243 14.1039C25.5152 14.0636 27.0777 15.2922 25.7029 15.4135C24.3282 15.5355 24.7266 16.5597 23.9948 16.877C23.2631 17.1937 22.8014 17.1778 21.804 17.2059C20.8073 17.2346 21.4496 17.6982 20.8315 18.0232C20.2134 18.3489 20.1892 18.1126 19.9127 17.8118ZM21.9311 23.4935C21.9311 23.4935 20.2818 22.6596 20.0251 24.2936C19.7684 25.9277 19.7882 27.2871 20.7313 27.0598C21.6744 26.8318 22.4617 27.0336 23.3985 25.6614C24.3352 24.2885 24.6149 23.9635 25.8313 25.1537C27.0477 26.344 27.5496 27.8924 28.6613 26.3363C29.773 24.7796 29.5456 26.0062 30.6254 25.0171C31.7052 24.0286 32.7345 25.4909 34.4419 25.6129C36.1494 25.7348 34.8321 25.4583 34.4745 24.1985C34.4745 24.1985 35.1003 23.8122 34.767 22.8608C34.4336 21.9093 35.3723 22.5281 35.4138 22.4764C35.4553 22.424 37.0325 22.2931 36.309 21.3264C35.5856 20.359 35.1226 21.1303 34.5077 19.5014C33.8928 17.8719 35.0684 15.9505 32.988 16.1248C32.988 16.1248 31.1228 17.9677 29.34 17.1414C27.5566 16.3158 25.5548 16.734 24.7924 17.974C24.03 19.2141 24.1826 18.9497 24.0504 20.1898C23.9182 21.4298 22.8653 22.1175 21.5722 21.9061C20.2798 21.6948 21.8915 23.4144 21.9311 23.4935Z" fill="#6C8CC7"/>
<path d="M19.8847 28.7692C19.8847 28.7692 22.0748 28.2354 22.9777 27.1684C23.8806 26.1014 24.0754 26.4296 24.3972 25.217C24.3972 25.217 25.1641 24.4622 26.5484 27.2322C26.5484 27.2322 28.0733 29.1504 29.2041 26.6729C29.2041 26.6729 29.623 25.9232 30.6395 27.6894C30.6395 27.6894 31.2117 28.2354 31.6816 27.0924C31.6816 27.0924 32.4057 27.4608 31.7576 29.0744C31.1095 30.688 32.2442 30.4274 32.9396 30.6062C33.6343 30.7844 32.7806 31.9363 33.8922 32.9484C35.0039 33.9611 36.1859 33.2811 36.7593 33.4726C37.3327 33.6648 33.3022 36.5133 33.4216 38.3996C33.5404 40.2852 34.4344 40.8707 31.9926 41.7244C29.5508 42.5782 31.2583 42.8355 31.174 43.3099C31.0891 43.785 30.3018 44.8973 29.0528 44.8386C27.8038 44.7805 27.8562 45.7562 27.1212 44.299C26.3862 42.8419 24.8487 41.9428 26.2509 39.9097C27.6531 37.8766 25.06 38.0899 25.4457 36.5044C25.832 34.9189 24.0192 36.2886 22.9777 35.6379C21.9363 34.9879 19.1701 35.2637 19.3285 31.8495C19.4875 28.4352 17.9314 30.914 19.8847 28.7692ZM11.5492 15.2641C11.5492 15.2641 15.0905 10.9444 15.98 10.8486C15.98 10.8486 15.3606 11.9131 15.3606 12.0874C15.3606 12.2624 14.7553 12.4916 15.2285 13.1059C15.2285 13.1059 15.4494 13.2623 15.5056 13.5688C15.5618 13.8759 15.6659 13.9851 16.3995 13.3396C16.3995 13.3396 16.8625 13.3843 16.8887 13.8989C16.9148 14.4142 17.003 14.2737 17.1434 14.4142C17.2845 14.5547 16.6339 15.1715 15.2131 15.2552C15.2131 15.2552 14.309 15.3478 13.7841 16.1804C13.2598 17.0131 13.2931 17.0922 13.3473 17.0756C13.4016 17.059 15.7495 15.0272 16.4487 15.6147C16.4487 15.6147 16.6901 15.7558 15.92 16.2475C15.92 16.2475 15.6039 16.5303 16.4487 16.9716C17.2941 17.4128 15.9117 17.9121 15.9315 18.2052C15.9513 18.4983 16.5113 18.8744 16.0413 19.0506C15.572 19.2275 14.2936 18.9644 14.1442 19.0973C13.9948 19.2307 14.0855 19.2492 13.9444 19.3642C13.8032 19.4785 13.5497 19.497 13.7017 19.9625C13.8537 20.4273 13.9348 21.1214 12.099 20.6527C12.099 20.6527 12.6111 19.9918 12.341 19.9216C12.0703 19.8507 11.9202 19.8922 11.5166 20.8079C11.5166 20.8079 10.2408 22.4751 9.25239 23.0211C9.25239 23.0211 8.8814 23.8033 8.85778 24.196C8.85778 24.196 8.5947 24.3926 8.5583 23.9227C8.52127 23.4533 8.33865 23.2733 8.18859 23.4968C8.03853 23.7196 7.9817 24.4143 8.08515 24.7138C8.18859 25.0139 8.52127 25.466 7.7199 26.9232C7.7199 26.9232 7.18928 27.9691 8.12601 28.7187C9.06275 29.4684 11.3072 33.2651 10.5703 33.9004C9.83346 34.5358 11.2587 34.2465 11.5958 34.5256C11.933 34.8046 11.7791 34.9879 12.3372 35.1252C12.8946 35.2624 12.7401 36.4782 14.1455 37.2119C15.5503 37.9456 13.8971 39.0349 14.2426 39.7175C14.588 40.4001 14.7234 41.7302 13.8186 42.2078C12.9144 42.6854 13.8122 43.8342 14.2426 44.2607C14.6729 44.6879 16.7463 47.3308 16.4308 47.3506C16.116 47.371 11.9253 45.6706 9.80537 40.4678C7.68542 35.2644 6.97601 33.3436 6.85916 31.2026C6.7423 29.061 6.91854 23.1775 8.3693 20.896C9.81941 18.6139 9.01103 18.5392 11.5492 15.2641ZM34.8124 43.5826C34.8124 43.5826 33.9848 44.8194 34.7939 44.9056C35.6022 44.9912 35.5454 45.0576 35.7261 44.4197C35.9068 43.7824 36.1067 43.5066 36.6016 43.1164C37.0964 42.7263 36.9821 42.0316 36.9349 41.5654C36.887 41.0987 36.6622 40.6709 36.4988 41.2417C36.3353 41.8126 36.5639 42.0124 35.9643 42.1267C35.3647 42.241 35.3839 42.0603 35.2408 42.4977C35.0984 42.9357 34.6987 42.9262 34.7843 43.2212C34.8698 43.5162 34.8124 43.5826 34.8124 43.5826Z" fill="#6C8CC7"/>
<path d="M28.0061 4.40234C26.9742 4.40234 26.1365 15.9975 26.1365 30.279C26.1365 44.5612 26.9742 56.1557 28.0061 56.1557C27.7481 49.6867 27.5387 40.3188 27.5387 30.279C27.5387 20.2393 27.7481 10.872 28.0061 4.40234Z" fill="#DEE5F6"/>
<path d="M0.990967 28.6836C0.990967 30.218 13.595 31.4638 29.1198 31.4638C44.6445 31.4638 57.2486 30.218 57.2486 28.6836C50.2164 29.0674 40.033 29.379 29.1198 29.379C18.2066 29.379 8.02317 29.0674 0.990967 28.6836Z" fill="#DEE5F6"/>
<path d="M25.6762 3.40527C18.2954 3.40527 12.3027 15.2827 12.3027 29.9122C12.3027 44.5424 18.2954 56.4198 25.6762 56.4198C19.3075 55.2085 14.1366 43.748 14.1366 29.9122C14.1366 16.077 19.3075 4.61658 25.6762 3.40527Z" fill="#DEE5F6"/>
<path d="M1.60645 30.8359C1.60645 38.2174 14.1135 44.2101 29.5188 44.2101C44.9241 44.2101 57.4318 38.2174 57.4318 30.8359C56.156 37.2047 44.0877 42.3756 29.5188 42.3756C14.9499 42.3756 2.88224 37.2047 1.60645 30.8359Z" fill="#DEE5F6"/>
<path d="M25.3033 2.8623C11.3379 2.8623 0 14.6893 0 29.2562C0 43.8238 11.3379 55.6501 25.3033 55.6501C12.5172 54.9069 2.13718 43.336 2.13718 29.2562C2.13718 15.1765 12.5172 3.60556 25.3033 2.8623ZM34.103 3.13368C48.0678 3.13368 59.4056 14.9607 59.4056 29.5276C59.4056 44.0952 48.0678 55.9215 34.103 55.9215C46.8884 55.1789 57.2684 43.608 57.2684 29.5276C57.2684 15.4479 46.8884 3.87694 34.103 3.13368Z" fill="#DEE5F6"/>
<path d="M31.5603 3.9043C38.9418 3.9043 44.9345 15.7817 44.9345 30.4112C44.9345 45.0414 38.9418 56.9188 31.5603 56.9188C37.9291 55.7075 43.0999 44.247 43.0999 30.4112C43.0999 16.5761 37.9291 5.1156 31.5603 3.9043Z" fill="#DEE5F6"/>
<path d="M1.49365 26.2081C1.49365 18.8267 14.1482 12.834 29.7355 12.834C45.3228 12.834 57.9773 18.8267 57.9773 26.2081C56.6862 19.8387 44.4761 14.6679 29.7355 14.6679C14.9949 14.6679 2.78477 19.8387 1.49365 26.2081Z" fill="#DEE5F6"/>
</svg>
