<svg width="60" height="60" viewBox="0 0 60 60" fill="none" xmlns="http://www.w3.org/2000/svg">
<g clip-path="url(#clip0_452_15523)">
<rect width="60" height="60" rx="5" fill="white"/>
<path d="M51.125 51.1249H42.235V37.1999C42.235 33.8799 42.175 29.605 37.61 29.605C32.98 29.605 32.27 33.225 32.27 36.9549V51.1249H23.38V22.49H31.915V26.405H32.035C33.775 23.435 37.015 21.655 40.455 21.78C49.465 21.78 51.13 27.705 51.13 35.4199L51.125 51.1199V51.1249ZM13.35 18.575C11.9844 18.5684 10.6765 18.0234 9.71034 17.0582C8.74422 16.093 8.19789 14.7856 8.19 13.42C8.19 10.59 10.52 8.26004 13.35 8.26004C16.18 8.26004 18.505 10.59 18.51 13.42C18.51 16.25 16.18 18.575 13.35 18.575ZM17.795 51.1249H8.895V22.49H17.795V51.1249ZM55.55 7.43159e-05H4.425C3.26575 -0.0066588 2.15069 0.444371 1.32212 1.25515C0.493545 2.06593 0.0184233 3.17094 0 4.33006V55.6699C0.0184233 56.829 0.493545 57.934 1.32212 58.7448C2.15069 59.5556 3.26575 60.0066 4.425 59.9999H55.555C56.7169 60.0093 57.8356 59.5597 58.6679 58.7489C59.5003 57.9382 59.979 56.8316 60 55.6699V4.32506C59.979 3.1642 59.4999 2.05871 58.6673 1.24951C57.8347 0.440316 56.716 -0.00699124 55.555 0.00507394L55.55 7.43159e-05Z" fill="#1275B1"/>
</g>
<defs>
<clipPath id="clip0_452_15523">
<rect width="60" height="60" rx="5" fill="white"/>
</clipPath>
</defs>
</svg>
