<svg width="60" height="60" viewBox="0 0 60 60" fill="none" xmlns="http://www.w3.org/2000/svg">
<path d="M38.8905 36.3692L37.7517 37.568C37.7517 37.568 35.0452 40.4175 27.6577 32.6397C20.2703 24.8621 22.9767 22.0127 22.9767 22.0127L23.6938 21.2578C25.4602 19.3981 25.6267 16.4124 24.0856 14.2328L20.9331 9.77403C19.0257 7.07625 15.3399 6.71988 13.1536 9.0216L9.22962 13.1529C8.14557 14.2942 7.41912 15.7736 7.50722 17.4149C7.7326 21.6137 9.52677 30.6475 19.5384 41.188C30.1552 52.3655 40.117 52.8098 44.1907 52.4078C45.4792 52.2805 46.5997 51.5857 47.5027 50.635L51.0542 46.896C53.4515 44.3722 52.7755 40.0455 49.7082 38.28L44.932 35.5308C42.918 34.3715 40.4645 34.712 38.8905 36.3692Z" fill="#1C274C"/>
<path d="M33.1487 4.69958C33.3142 3.67736 34.2805 2.98393 35.3027 3.14941C35.366 3.16153 35.5697 3.19958 35.6762 3.22333C35.8897 3.27086 36.1872 3.34398 36.5582 3.45206C37.3002 3.66816 38.3367 4.02418 39.5807 4.59451C42.0715 5.73641 45.386 7.73391 48.8255 11.1734C52.265 14.6129 54.2625 17.9274 55.4042 20.4181C55.9747 21.6622 56.3307 22.6987 56.5467 23.4406C56.6547 23.8117 56.728 24.1092 56.7755 24.3225C56.7992 24.4292 56.8167 24.5149 56.8287 24.5781L56.8432 24.6561C57.0085 25.6783 56.3215 26.6848 55.2992 26.8503C54.28 27.0153 53.3197 26.325 53.1502 25.3078C53.145 25.2803 53.1305 25.207 53.1152 25.1378C53.0842 24.9993 53.031 24.7797 52.9465 24.4893C52.7772 23.9085 52.4835 23.0452 51.9955 21.981C51.021 19.8552 49.2685 16.9197 46.1737 13.8251C43.0792 10.7304 40.1437 8.97793 38.018 8.00336C36.9537 7.51546 36.0905 7.22163 35.5095 7.05243C35.2192 6.96786 34.8542 6.88408 34.7157 6.85326C33.6982 6.68368 32.9837 5.71888 33.1487 4.69958Z" fill="#1C274C"/>
<path fill-rule="evenodd" clip-rule="evenodd" d="M33.7142 13.3233C33.9987 12.3276 35.0364 11.751 36.0322 12.0355L35.5172 13.8384C36.0322 12.0355 36.0322 12.0355 36.0322 12.0355L36.0359 12.0366L36.0397 12.0377L36.0479 12.0401L36.0674 12.0459L36.1169 12.0613C36.1544 12.0733 36.2017 12.089 36.2577 12.109C36.3699 12.1488 36.5184 12.2055 36.7004 12.2835C37.0647 12.4396 37.5622 12.6806 38.1737 13.0424C39.3972 13.7666 41.0677 14.9695 43.0302 16.932C44.9927 18.8944 46.1954 20.5649 46.9197 21.7885C47.2814 22.3998 47.5224 22.8975 47.6787 23.2617C47.7567 23.4437 47.8134 23.5921 47.8532 23.7044C47.8732 23.7605 47.8887 23.8076 47.9009 23.8453L47.9162 23.8947L47.9219 23.9141L47.9244 23.9224L47.9254 23.9263C47.9254 23.9263 47.9267 23.9299 46.1237 24.445L47.9267 23.9299C48.2112 24.9256 47.6344 25.9633 46.6389 26.2478C45.6517 26.5298 44.6229 25.9655 44.3282 24.9854L44.3189 24.9584C44.3057 24.9208 44.2782 24.8469 44.2319 24.7389C44.1394 24.523 43.9717 24.17 43.6927 23.6985C43.1352 22.7566 42.1284 21.3335 40.3784 19.5836C38.6287 17.8337 37.2054 16.827 36.2637 16.2696C35.7922 15.9905 35.4392 15.8228 35.2232 15.7303C35.1152 15.684 35.0412 15.6564 35.0037 15.6431L34.9767 15.6338C33.9967 15.3391 33.4322 14.3105 33.7142 13.3233Z" fill="#1C274C"/>
</svg>
