<svg width="60" height="60" viewBox="0 0 60 60" fill="none" xmlns="http://www.w3.org/2000/svg">
<path fill-rule="evenodd" clip-rule="evenodd" d="M21.5607 35.9498L32.4375 24.9829C33.1669 24.2479 34.3538 24.2442 35.0888 24.9717C35.8238 25.7011 35.8294 26.8879 35.1 27.6229L24.2288 38.5861L34.1775 53.5898C34.5657 54.1767 35.25 54.4954 35.9494 54.4167C36.6488 54.3379 37.245 53.8748 37.4944 53.2167L54.4144 8.39668C54.6732 7.71043 54.5082 6.93418 53.9907 6.41293C53.4732 5.89168 52.6988 5.72106 52.0088 5.97606L7.00128 22.6486C6.3394 22.8923 5.87253 23.4886 5.79003 24.1879C5.70753 24.8873 6.0244 25.5754 6.61128 25.9654L21.5607 35.9498Z" fill="#DFEDF0"/>
</svg>
