<svg width="60" height="60" viewBox="0 0 60 60" fill="none" xmlns="http://www.w3.org/2000/svg">
<g clip-path="url(#clip0_452_15535)">
<path d="M16.0223 51.3877L16.9919 51.8725C21.0318 54.2965 25.5565 55.4276 30.0812 55.4276C44.3017 55.4276 55.9367 43.7927 55.9367 29.5722C55.9367 22.7852 53.1895 16.1597 48.3416 11.3118C43.4937 6.46394 37.0299 3.7168 30.0812 3.7168C15.8607 3.7168 4.22581 15.3517 4.38741 29.7338C4.38741 34.5817 5.84177 39.268 8.26572 43.3079L8.9121 44.2775L6.32656 53.8117L16.0223 51.3877Z" fill="#00E676"/>
<path d="M51.0887 8.72621C45.5944 3.07033 37.9994 0 30.2427 0C13.7599 0 0.509009 13.4125 0.670605 29.7337C0.670605 34.9048 2.12497 39.9143 4.54892 44.439L0.347412 59.7907L16.0223 55.7508C20.3854 58.1747 25.2333 59.3059 30.0811 59.3059C46.4024 59.3059 59.6533 45.8934 59.6533 29.5721C59.6533 21.6539 56.583 14.2205 51.0887 8.72621ZM30.2427 54.2964C25.8796 54.2964 21.5165 53.1652 17.7998 50.9029L16.8302 50.4181L7.45765 52.842L9.8816 43.631L9.23521 42.6614C2.12497 31.1881 5.5185 15.998 17.1534 8.8878C28.7884 1.77756 43.8168 5.17108 50.9271 16.806C58.0373 28.441 54.6438 43.4694 43.0089 50.5797C39.2921 53.0036 34.7674 54.2964 30.2427 54.2964ZM44.4632 36.3592L42.6857 35.5512C42.6857 35.5512 40.1001 34.42 38.4842 33.612C38.3226 33.612 38.161 33.4505 37.9994 33.4505C37.5146 33.4505 37.1914 33.6121 36.8682 33.7736C36.8682 33.7736 36.7066 33.9352 34.4443 36.5208C34.2827 36.844 33.9595 37.0056 33.6363 37.0056H33.4747C33.3131 37.0056 32.9899 36.844 32.8283 36.6824L32.0203 36.3592C30.2427 35.5512 28.6268 34.5816 27.334 33.2889C27.0108 32.9657 26.526 32.6425 26.2028 32.3193C25.0717 31.1881 23.9405 29.8953 23.1325 28.441L22.9709 28.1178C22.8093 27.9562 22.8093 27.7946 22.6477 27.4714C22.6477 27.1482 22.6477 26.825 22.8093 26.6634C22.8093 26.6634 23.4557 25.8554 23.9405 25.3706C24.2637 25.0474 24.4253 24.5627 24.7485 24.2395C25.0717 23.7547 25.2333 23.1083 25.0717 22.6235C24.9101 21.8155 22.9709 17.4524 22.4861 16.4828C22.1629 15.998 21.8397 15.8364 21.3549 15.6748H20.8702C20.547 15.6748 20.0622 15.6748 19.5774 15.6748C19.2542 15.6748 18.931 15.8364 18.6078 15.8364L18.4462 15.998C18.123 16.1596 17.7998 16.4828 17.4766 16.6444C17.1534 16.9676 16.9918 17.2908 16.6686 17.614C15.5375 19.0684 14.8911 20.8459 14.8911 22.6235C14.8911 23.9163 15.2143 25.209 15.6991 26.3402L15.8607 26.825C17.315 29.8953 19.2542 32.6425 21.8397 35.0664L22.4861 35.7128C22.9709 36.1976 23.4557 36.5208 23.7789 37.0056C27.1724 39.9143 31.0507 42.0151 35.4138 43.1462C35.8986 43.3078 36.545 43.3078 37.0298 43.4694C37.5146 43.4694 38.161 43.4694 38.6458 43.4694C39.4537 43.4694 40.4233 43.1462 41.0697 42.823C41.5545 42.4999 41.8777 42.4999 42.2009 42.1767L42.5241 41.8535C42.8473 41.5303 43.1705 41.3687 43.4936 41.0455C43.8168 40.7223 44.14 40.3991 44.3016 40.0759C44.6248 39.4295 44.7864 38.6215 44.948 37.8136C44.948 37.4904 44.948 37.0056 44.948 36.6824C44.948 36.6824 44.7864 36.5208 44.4632 36.3592Z" fill="white"/>
</g>
<defs>
<clipPath id="clip0_452_15535">
<rect width="60" height="60" fill="white"/>
</clipPath>
</defs>
</svg>
