<svg width="60" height="60" viewBox="0 0 60 60" fill="none" xmlns="http://www.w3.org/2000/svg">
<path d="M55.17 17.3738C54.8696 16.2657 54.2844 15.2556 53.4726 14.4437C52.6608 13.6319 51.6506 13.0467 50.5425 12.7463C46.4325 11.6626 30 11.6626 30 11.6626C30 11.6626 13.5675 11.6626 9.4575 12.7463C7.2075 13.3501 5.4375 15.1238 4.83 17.3738C3.75 21.4801 3.75 30.0001 3.75 30.0001C3.75 30.0001 3.75 38.5613 4.83 42.6263C5.4375 44.8763 7.21125 46.6501 9.4575 47.2538C13.5675 48.3376 30 48.3376 30 48.3376C30 48.3376 46.4325 48.3376 50.5425 47.2538C51.6506 46.9535 52.6608 46.3683 53.4726 45.5565C54.2844 44.7446 54.8696 43.7344 55.17 42.6263C56.25 38.5201 56.25 30.0001 56.25 30.0001C56.25 30.0001 56.25 21.4801 55.17 17.3738Z" fill="#FF0000"/>
<path d="M24.7236 37.9123L38.3886 30.0448L24.7236 22.1323V37.9123Z" fill="white"/>
</svg>
